<?xml version="1.0" encoding="UTF-8" standalone="no"?>
<!-- Created with Inkscape (http://www.inkscape.org/) -->

<svg
   xmlns:osb="http://www.openswatchbook.org/uri/2009/osb"
   xmlns:dc="http://purl.org/dc/elements/1.1/"
   xmlns:cc="http://creativecommons.org/ns#"
   xmlns:rdf="http://www.w3.org/1999/02/22-rdf-syntax-ns#"
   xmlns:svg="http://www.w3.org/2000/svg"
   xmlns="http://www.w3.org/2000/svg"
   xmlns:sodipodi="http://sodipodi.sourceforge.net/DTD/sodipodi-0.dtd"
   xmlns:inkscape="http://www.inkscape.org/namespaces/inkscape"
   width="56"
   height="28"
   id="svg2"
   version="1.1"
   inkscape:version="0.48.5 r10040"
   sodipodi:docname="explorer.svg">
  <defs
     id="defs4">
    <linearGradient
       id="linearGradient3899"
       osb:paint="solid">
      <stop
         style="stop-color:#74a6fd;stop-opacity:1;"
         offset="0"
         id="stop3901" />
    </linearGradient>
  </defs>
  <sodipodi:namedview
     id="base"
     pagecolor="#ffffff"
     bordercolor="#666666"
     borderopacity="1.0"
     inkscape:pageopacity="0.0"
     inkscape:pageshadow="2"
     inkscape:zoom="11.313709"
     inkscape:cx="22.463783"
     inkscape:cy="11.708329"
     inkscape:document-units="px"
     inkscape:current-layer="layer1"
     showgrid="true"
     inkscape:showpageshadow="false"
     inkscape:snap-nodes="false"
     inkscape:window-width="1920"
     inkscape:window-height="1147"
     inkscape:window-x="-8"
     inkscape:window-y="-8"
     inkscape:window-maximized="1"
     inkscape:snap-bbox="true"
     inkscape:snap-bbox-midpoints="true">
    <inkscape:grid
       type="xygrid"
       id="grid2985"
       empspacing="14"
       visible="true"
       enabled="true"
       snapvisiblegridlinesonly="true"
       spacingx="1px"
       color="#0000ff"
       opacity="0.07843137" />
  </sodipodi:namedview>
  <metadata
     id="metadata7">
    <rdf:RDF>
      <cc:Work
         rdf:about="">
        <dc:format>image/svg+xml</dc:format>
        <dc:type
           rdf:resource="http://purl.org/dc/dcmitype/StillImage" />
      </cc:Work>
    </rdf:RDF>
  </metadata>
  <g
     inkscape:label="Layer 1"
     inkscape:groupmode="layer"
     id="layer1"
     transform="translate(0,-1024.3622)">
    <g
       id="g5370"
       transform="translate(2.4214595,0.01635)">
      <path
         inkscape:connector-curvature="0"
         id="rect2998"
         d="m 0.6832161,1027.073 0,4.8903 4.8183942,0 0,-4.8903 -4.8183942,0 z m 1.1506613,1.1506 2.5170716,0 0,2.589 -2.5170716,0 0,-2.589 z"
         style="font-size:medium;font-style:normal;font-variant:normal;font-weight:normal;font-stretch:normal;text-indent:0;text-align:start;text-decoration:none;line-height:normal;letter-spacing:normal;word-spacing:normal;text-transform:none;direction:ltr;block-progression:tb;writing-mode:lr-tb;text-anchor:start;baseline-shift:baseline;color:#000000;fill:#2fc367;fill-opacity:1;stroke:none;stroke-width:2;marker:none;visibility:visible;display:inline;overflow:visible;enable-background:accumulate;font-family:Sans;-inkscape-font-specification:Sans" />
      <path
         inkscape:connector-curvature="0"
         id="rect3768"
         d="m 17.691429,1027.037 0,4.8903 4.782436,0 0,-4.8903 -4.782436,0 z m 1.150661,1.1507 2.481113,0 0,2.553 -2.481113,0 0,-2.553 z"
         style="font-size:medium;font-style:normal;font-variant:normal;font-weight:normal;font-stretch:normal;text-indent:0;text-align:start;text-decoration:none;line-height:normal;letter-spacing:normal;word-spacing:normal;text-transform:none;direction:ltr;block-progression:tb;writing-mode:lr-tb;text-anchor:start;baseline-shift:baseline;color:#000000;fill:#74a6fd;fill-opacity:1;stroke:none;stroke-width:2;marker:none;visibility:visible;display:inline;overflow:visible;enable-background:accumulate;font-family:Sans;-inkscape-font-specification:Sans" />
      <path
         inkscape:connector-curvature="0"
         id="rect3768-1"
         d="m 17.691429,1035.9546 0,4.8544 4.782436,0 0,-4.8544 -4.782436,0 z m 1.150661,1.1147 2.481113,0 0,2.589 -2.481113,0 0,-2.589 z"
         style="font-size:medium;font-style:normal;font-variant:normal;font-weight:normal;font-stretch:normal;text-indent:0;text-align:start;text-decoration:none;line-height:normal;letter-spacing:normal;word-spacing:normal;text-transform:none;direction:ltr;block-progression:tb;writing-mode:lr-tb;text-anchor:start;baseline-shift:baseline;color:#000000;fill:#74a6fd;fill-opacity:1;stroke:none;stroke-width:2;marker:none;visibility:visible;display:inline;overflow:visible;enable-background:accumulate;font-family:Sans;-inkscape-font-specification:Sans" />
      <path
         inkscape:connector-curvature="0"
         id="rect3768-7"
         d="m 17.691429,1044.8003 0,4.8544 4.782436,0 0,-4.8544 -4.782436,0 z m 1.150661,1.1147 2.481113,0 0,2.589 -2.481113,0 0,-2.589 z"
         style="font-size:medium;font-style:normal;font-variant:normal;font-weight:normal;font-stretch:normal;text-indent:0;text-align:start;text-decoration:none;line-height:normal;letter-spacing:normal;word-spacing:normal;text-transform:none;direction:ltr;block-progression:tb;writing-mode:lr-tb;text-anchor:start;baseline-shift:baseline;color:#000000;fill:#74a6fd;fill-opacity:1;stroke:none;stroke-width:2;marker:none;visibility:visible;display:inline;overflow:visible;enable-background:accumulate;font-family:Sans;-inkscape-font-specification:Sans" />
      <path
         id="rect3797"
         d="m 6.5443971,1028.727 0,1.6541 6.2207629,0 0,16.5768 1.582159,0 0,-16.5768 1.654076,0 0,-1.6541 -9.4569979,0 z"
         style="fill:#2fc367;fill-opacity:1;fill-rule:nonzero;stroke:none"
         inkscape:connector-curvature="0" />
      <path
         inkscape:connector-curvature="0"
         id="path3802"
         d="m 12.779734,1038.6353 0,-8.2884 -3.1103812,0 -3.1103817,0 0,-0.809 0,-0.809 4.7105199,0 4.71052,0 0,0.809 0,0.809 -0.827038,0 -0.827038,0 0,8.2884 0,8.2884 -0.7731,0 -0.773101,0 0,-8.2884 z"
         style="fill:#a9a9a9;fill-opacity:1;fill-rule:nonzero;stroke:none" />
    </g>
    <g
       id="g3848"
       transform="matrix(1.1506613,0,0,1.1506613,26.251343,-156.42946)">
      <rect
         style="fill:#2fc367;fill-opacity:1;fill-rule:nonzero;stroke:none"
         id="rect3850"
         width="4.1894035"
         height="4.2525382"
         x="4.2209711"
         y="1028.5516" />
      <rect
         style="fill:#74a6fd;fill-opacity:1;fill-rule:nonzero;stroke:none"
         id="rect3852"
         width="4.152256"
         height="4.2396269"
         x="19"
         y="1028.52" />
      <rect
         style="fill:#74a6fd;fill-opacity:1;fill-rule:nonzero;stroke:none"
         id="rect3854"
         width="4.152256"
         height="4.2396269"
         x="19"
         y="1036.2582" />
      <rect
         style="fill:#74a6fd;fill-opacity:1;fill-rule:nonzero;stroke:none"
         id="rect3856"
         width="4.152256"
         height="4.2396269"
         x="19"
         y="1043.9447" />
      <path
         style="fill:#2fc367;fill-opacity:1;fill-rule:nonzero;stroke:none"
         d="m 9.3125,5.625 0,1.4375 5.40625,0 0,14.40625 1.375,0 0,-14.40625 1.4375,0 0,-1.4375 -8.21875,0 z"
         transform="translate(0,1024.3622)"
         id="path3858"
         inkscape:connector-curvature="0" />
      <path
         style="fill:#a9a9a9;fill-opacity:1;fill-rule:nonzero;stroke:none"
         d="m 14.731416,14.235932 0,-7.2031254 -2.703125,0 -2.7031253,0 0,-0.703125 0,-0.703125 4.0937503,0 4.09375,0 0,0.703125 0,0.703125 -0.71875,0 -0.71875,0 0,7.2031254 0,7.203125 -0.671875,0 -0.671875,0 0,-7.203125 z"
         id="path3860"
         inkscape:connector-curvature="0"
         transform="translate(0,1024.3622)" />
    </g>
  </g>
</svg>
