<?xml version="1.0" encoding="UTF-8" standalone="no"?>
<!-- Generator: Adobe Illustrator 18.0.0, SVG Export Plug-In . SVG Version: 6.00 Build 0)  -->

<svg
   xmlns:dc="http://purl.org/dc/elements/1.1/"
   xmlns:cc="http://creativecommons.org/ns#"
   xmlns:rdf="http://www.w3.org/1999/02/22-rdf-syntax-ns#"
   xmlns:svg="http://www.w3.org/2000/svg"
   xmlns="http://www.w3.org/2000/svg"
   xmlns:sodipodi="http://sodipodi.sourceforge.net/DTD/sodipodi-0.dtd"
   xmlns:inkscape="http://www.inkscape.org/namespaces/inkscape"
   version="1.1"
   x="0px"
   y="0px"
   width="56"
   height="56"
   viewBox="0 0 56 56"
   enable-background="new 0 0 56 448"
   xml:space="preserve"
   id="svg2"
   inkscape:version="0.92.3 (2405546, 2018-03-11)"
   sodipodi:docname="icon_nav.svg"><metadata
   id="metadata786"><rdf:RDF><cc:Work
       rdf:about=""><dc:format>image/svg+xml</dc:format><dc:type
         rdf:resource="http://purl.org/dc/dcmitype/StillImage" /><dc:title></dc:title></cc:Work></rdf:RDF></metadata><defs
   id="defs784">
	
	
	
	
	
	
	
	
	
	
	
	
	
	
	
	
	
	
	
	
	
	
	
	
	
	
	
	
	
	
	
	
	

		
		
		
	
		
		
		
	
			
		
		
		
		
		
	
		
		
		
		
	
		
		
		
		
	
			
		
			
		</defs><sodipodi:namedview
   pagecolor="#ff00ff"
   bordercolor="#666666"
   borderopacity="1"
   objecttolerance="10"
   gridtolerance="10"
   guidetolerance="10"
   inkscape:pageopacity="0.60784314"
   inkscape:pageshadow="2"
   inkscape:window-width="1920"
   inkscape:window-height="1137"
   id="namedview782"
   showgrid="true"
   inkscape:snap-bbox="true"
   inkscape:snap-bbox-midpoints="true"
   inkscape:zoom="5.6568542"
   inkscape:cx="-9.4661761"
   inkscape:cy="35.971128"
   inkscape:window-x="-8"
   inkscape:window-y="229"
   inkscape:window-maximized="1"
   inkscape:current-layer="svg2"
   inkscape:bbox-nodes="false"
   inkscape:snap-bbox-edge-midpoints="false"
   borderlayer="false"><inkscape:grid
     type="xygrid"
     id="grid3763"
     empspacing="2"
     visible="true"
     enabled="true"
     snapvisiblegridlinesonly="true"
     spacingx="14"
     spacingy="14"
     originx="0"
     originy="0" /></sodipodi:namedview>
<g
   id="label"
   transform="translate(0,-392)">
</g>
<g
   id="BC"
   transform="translate(0,-392)">
</g>
<g
   id="brand"
   transform="translate(0,-392)">
</g>
<g
   id="generic"
   transform="translate(0,-392)">
</g>
<g
   id="negative"
   transform="translate(0,-392)">
</g>
<g
   id="creation"
   transform="translate(0,-392)">
</g>
<g
   id="games"
   transform="translate(0,-392)">
</g>
<g
   id="Social_and_Interaction"
   transform="translate(0,-392)">
</g>
<g
   id="g4034"
   transform="translate(-0.70710678,0.7)"><g
     transform="translate(0.65049803,-196.7)"
     id="g201"
     style="fill:#ffffff">
			<path
   style="fill:#ffffff"
   inkscape:connector-curvature="0"
   id="path203"
   d="m 11,238 c -3.3,0 -6,-2.7 -6,-6 0,-3.3 2.7,-6 6,-6 3.3,0 6,2.7 6,6 0,3.3 -2.7,6 -6,6 z m 0,-10 c -2.2,0 -4,1.8 -4,4 0,2.2 1.8,4 4,4 2.2,0 4,-1.8 4,-4 0,-2.2 -1.8,-4 -4,-4 z" />
		</g><path
     d="m 19.650498,41.9 c -0.4,0 -0.8,-0.2 -0.9,-0.6 -0.2,-0.5 0,-1.1 0.5,-1.3 1.5,-0.6 2.4,-2.1 2.4,-3.7 0,-1.9 -1.3,-3.5 -3.2,-3.9 -0.5,-0.1 -0.9,-0.6 -0.8,-1.2 0.1,-0.5 0.6,-0.9 1.2,-0.8 2.8,0.6 4.8,3 4.8,5.9 0,2.4 -1.4,4.5 -3.6,5.5 -0.1,0.1 -0.3,0.1 -0.4,0.1 z"
     id="path207"
     inkscape:connector-curvature="0"
     style="fill:#ffffff" /><g
     transform="translate(0.65049803,-196.7)"
     id="g209"
     style="fill:#ffffff">
			<path
   style="fill:#ffffff"
   inkscape:connector-curvature="0"
   id="path211"
   d="m 11,250 c -5.2,0 -8.4,-2.1 -8.5,-2.2 -0.3,-0.2 -0.5,-0.6 -0.4,-1 0.2,-1.2 1.1,-5.4 2.3,-6.5 1.2,-1.2 5.1,-1.3 6.7,-1.3 1.6,0 5.5,0.1 6.7,1.3 1.1,1.1 2,5.3 2.3,6.5 0.1,0.4 -0.1,0.8 -0.4,1 -0.3,0.1 -3.5,2.2 -8.7,2.2 z m -6.9,-3.5 c 1.1,0.5 3.5,1.5 6.9,1.5 3.4,0 5.8,-1 6.9,-1.5 -0.5,-2.1 -1.2,-4.3 -1.6,-4.8 -0.4,-0.4 -2.9,-0.7 -5.3,-0.7 -2.4,0 -4.9,0.3 -5.3,0.7 -0.4,0.4 -1.1,2.7 -1.6,4.8 z" />
		</g><path
     d="m 22.650498,52.3 c -0.4,0 -0.8,-0.3 -1,-0.7 -0.2,-0.5 0.1,-1.1 0.7,-1.2 1.1,-0.3 1.8,-1 2.2,-1.3 -0.5,-2.2 -1.2,-4.6 -1.6,-5 -0.6,-0.6 -2.6,-2 -3.4,-2.1 -0.5,-0.1 -0.9,-0.6 -0.9,-1.1 0.1,-0.5 0.5,-1 1.1,-0.9 1.7,0.2 4.3,2.4 4.6,2.7 1.1,1.1 2,5.3 2.3,6.5 0.1,0.3 0,0.6 -0.2,0.8 -0.1,0.1 -1.3,1.7 -3.5,2.4 -0.1,-0.1 -0.2,-0.1 -0.3,-0.1 z"
     id="path215"
     inkscape:connector-curvature="0"
     style="fill:#ffffff" /></g>
<g
   id="Navigation_copy"
   display="none"
   style="display:none"
   transform="translate(0,-392)">
	<rect
   display="inline"
   width="56"
   height="28"
   id="rect398"
   x="0"
   y="0"
   style="display:inline;fill:none" />
	<g
   id="blog-on_2_"
   display="inline"
   style="display:inline">
		<g
   id="g401">
			<path
   d="m 51,416 c -0.1,0 -0.3,0 -0.4,-0.1 L 36.8,410 h -1.6 l -1.8,0.9 c -0.3,0.2 -0.7,0.1 -1,0 -0.3,-0.2 -0.5,-0.5 -0.5,-0.9 v -7 c 0,-0.3 0.2,-0.7 0.5,-0.9 0.3,-0.2 0.7,-0.2 1,0 l 1.8,0.9 h 1.5 l 13.8,-6.9 c 0.3,-0.2 0.7,-0.1 1,0 0.3,0.2 0.5,0.5 0.5,0.9 v 18 c 0,0.3 -0.2,0.6 -0.4,0.8 -0.2,0.1 -0.4,0.2 -0.6,0.2 z m -16,-8 h 2 c 0.1,0 0.3,0 0.4,0.1 l 12.6,5.4 v -14.9 l -12.6,6.3 C 37.3,405 37.1,405 37,405 h -2 c -0.2,0 -0.3,0 -0.4,-0.1 L 34,404.6 v 3.8 l 0.6,-0.3 C 34.7,408 34.8,408 35,408 Z"
   id="path403"
   inkscape:connector-curvature="0"
   style="fill:#ffffff" />
		</g>
		<g
   id="g405">
			<path
   d="m 42,417 c -0.1,0 -0.3,0 -0.4,-0.1 l -6,-3 C 35.3,413.7 35,413.4 35,413 v -3 c 0,-0.6 0.4,-1 1,-1 0.6,0 1,0.4 1,1 v 2.4 l 4.6,2.3 1.6,-3.1 c 0.2,-0.5 0.8,-0.7 1.3,-0.4 0.5,0.2 0.7,0.8 0.4,1.3 l -2,4 c -0.2,0.3 -0.5,0.5 -0.9,0.5 z"
   id="path407"
   inkscape:connector-curvature="0"
   style="fill:#ffffff" />
		</g>
	</g>
	<g
   id="blog_1_"
   display="inline"
   style="display:inline">
		<g
   id="g410">
			<path
   d="m 23,416 c -0.1,0 -0.3,0 -0.4,-0.1 L 8.8,410 H 7.2 l -1.8,0.9 c -0.3,0.2 -0.7,0.1 -1,0 C 4.2,410.7 4,410.3 4,410 v -7 c 0,-0.3 0.2,-0.7 0.5,-0.9 0.3,-0.2 0.7,-0.2 1,0 l 1.8,0.9 h 1.5 l 13.8,-6.9 c 0.3,-0.2 0.7,-0.1 1,0 0.3,0.2 0.5,0.5 0.5,0.9 v 18 c 0,0.3 -0.2,0.6 -0.4,0.8 -0.3,0.1 -0.5,0.2 -0.7,0.2 z M 7,408 h 2 c 0.1,0 0.3,0 0.4,0.1 L 22,413.5 V 398.6 L 9.4,404.9 C 9.3,405 9.2,405 9,405 H 7 c -0.2,0 -0.3,0 -0.4,-0.1 L 6,404.6 v 3.8 l 0.6,-0.3 C 6.7,408 6.8,408 7,408 Z"
   id="path412"
   inkscape:connector-curvature="0"
   style="fill:#191919" />
		</g>
		<g
   id="g414">
			<path
   d="m 14,417 c -0.1,0 -0.3,0 -0.4,-0.1 l -6,-3 C 7.2,413.7 7,413.4 7,413 v -3 c 0,-0.6 0.4,-1 1,-1 0.6,0 1,0.4 1,1 v 2.4 l 4.6,2.3 1.6,-3.1 c 0.2,-0.5 0.8,-0.7 1.3,-0.4 0.5,0.2 0.7,0.8 0.4,1.3 l -2,4 c -0.2,0.3 -0.5,0.5 -0.9,0.5 z"
   id="path416"
   inkscape:connector-curvature="0"
   style="fill:#191919" />
		</g>
	</g>
	<g
   id="forum-on_2_"
   display="inline"
   style="display:inline">
		<g
   id="g419">
			<path
   d="m 46,388 c -0.1,0 -0.3,0 -0.4,-0.1 C 45.2,387.7 45,387.4 45,387 v -2 h -2 c -0.6,0 -1,-0.4 -1,-1 0,-0.6 0.4,-1 1,-1 h 3 c 0.6,0 1,0.4 1,1 v 0.9 l 2,-1.6 c 0.2,-0.1 0.4,-0.2 0.6,-0.2 H 52 v -5 h -1 c -0.6,0 -1,-0.4 -1,-1 0,-0.6 0.4,-1 1,-1 h 2 c 0.6,0 1,0.4 1,1 v 7 c 0,0.6 -0.4,1 -1,1 h -3 l -3.3,2.8 c -0.2,0 -0.5,0.1 -0.7,0.1 z"
   id="path421"
   inkscape:connector-curvature="0"
   style="fill:#ffffff" />
		</g>
		<g
   id="g423">
			<path
   d="m 39,387 c -0.3,0 -0.5,-0.1 -0.7,-0.3 L 33.6,382 H 31 c -0.6,0 -1,-0.4 -1,-1 v -12 c 0,-0.6 0.4,-1 1,-1 h 17 c 0.6,0 1,0.4 1,1 v 12 c 0,0.6 -0.4,1 -1,1 h -8 v 4 c 0,0.4 -0.2,0.8 -0.6,0.9 -0.1,0.1 -0.3,0.1 -0.4,0.1 z m -7,-7 h 2 c 0.3,0 0.5,0.1 0.7,0.3 l 3.3,3.3 V 381 c 0,-0.6 0.4,-1 1,-1 h 8 V 370 H 32 Z"
   id="path425"
   inkscape:connector-curvature="0"
   style="fill:#ffffff" />
		</g>
	</g>
	<g
   id="forum_1_"
   display="inline"
   style="display:inline">
		<g
   id="g428">
			<path
   d="m 18,388 c -0.1,0 -0.3,0 -0.4,-0.1 C 17.2,387.7 17,387.4 17,387 v -2 h -2 c -0.6,0 -1,-0.4 -1,-1 0,-0.6 0.4,-1 1,-1 h 3 c 0.6,0 1,0.4 1,1 v 0.9 l 2,-1.6 c 0.2,-0.1 0.4,-0.2 0.6,-0.2 H 24 v -5 h -1 c -0.6,0 -1,-0.4 -1,-1 0,-0.6 0.4,-1 1,-1 h 2 c 0.6,0 1,0.4 1,1 v 7 c 0,0.6 -0.4,1 -1,1 h -3 l -3.3,2.8 c -0.2,0 -0.5,0.1 -0.7,0.1 z"
   id="path430"
   inkscape:connector-curvature="0"
   style="fill:#191919" />
		</g>
		<g
   id="g432">
			<path
   d="m 11,387 c -0.3,0 -0.5,-0.1 -0.7,-0.3 L 5.6,382 H 3 c -0.6,0 -1,-0.4 -1,-1 v -12 c 0,-0.6 0.4,-1 1,-1 h 17 c 0.6,0 1,0.4 1,1 v 12 c 0,0.6 -0.4,1 -1,1 h -8 v 4 c 0,0.4 -0.2,0.8 -0.6,0.9 -0.1,0.1 -0.3,0.1 -0.4,0.1 z m -7,-7 h 2 c 0.3,0 0.5,0.1 0.7,0.3 l 3.3,3.3 V 381 c 0,-0.6 0.4,-1 1,-1 h 8 V 370 H 4 Z"
   id="path434"
   inkscape:connector-curvature="0"
   style="fill:#191919" />
		</g>
	</g>
	<g
   id="group-on_2_"
   display="inline"
   style="display:inline">
		<g
   id="g437">
			<path
   d="m 42,350 c -2.8,0 -5,-2.2 -5,-5 0,-2.8 2.2,-5 5,-5 2.8,0 5,2.2 5,5 0,2.8 -2.2,5 -5,5 z m 0,-8 c -1.7,0 -3,1.3 -3,3 0,1.7 1.3,3 3,3 1.7,0 3,-1.3 3,-3 0,-1.7 -1.3,-3 -3,-3 z"
   id="path439"
   inkscape:connector-curvature="0"
   style="fill:#ffffff" />
		</g>
		<g
   id="g441">
			<path
   d="m 42,361 c -4.2,0 -6.6,-2.2 -6.7,-2.3 -0.2,-0.2 -0.3,-0.5 -0.3,-0.8 0.1,-1.7 0.4,-4.7 1.3,-5.7 0.9,-1 3.9,-1.2 5.7,-1.3 0,0 0.1,0 0.1,0 1.7,0.1 4.7,0.4 5.7,1.3 1,0.9 1.2,3.9 1.3,5.7 0,0.3 -0.1,0.6 -0.3,0.8 -0.2,0.1 -2.6,2.3 -6.8,2.3 z m -5,-3.5 c 0.7,0.5 2.4,1.5 5,1.5 2.6,0 4.3,-1 5,-1.5 -0.1,-1.8 -0.4,-3.5 -0.7,-3.9 -0.3,-0.2 -2.4,-0.6 -4.3,-0.7 -1.9,0.1 -3.9,0.4 -4.3,0.7 -0.2,0.4 -0.5,2.2 -0.7,3.9 z"
   id="path443"
   inkscape:connector-curvature="0"
   style="fill:#ffffff" />
		</g>
		<g
   id="g445">
			<g
   id="g447">
				<path
   d="m 36,351 c -2.2,0 -4,-1.8 -4,-4 0,-1.7 1.1,-3.2 2.7,-3.8 0.5,-0.2 1.1,0.1 1.3,0.6 0.2,0.5 -0.1,1.1 -0.6,1.3 -0.8,0.3 -1.3,1 -1.3,1.9 0,1.1 0.9,2 2,2 0.6,0 1,0.4 1,1 0,0.6 -0.5,1 -1.1,1 z"
   id="path449"
   inkscape:connector-curvature="0"
   style="fill:#ffffff" />
			</g>
			<g
   id="g451">
				<path
   d="m 33,358 c -0.1,0 -0.1,0 -0.2,0 -1.3,-0.3 -2.3,-1.1 -2.4,-1.2 -0.3,-0.2 -0.4,-0.6 -0.3,-1 0.3,-1.4 0.8,-3.9 1.6,-4.6 0.4,-0.4 3.3,-2 4.2,-2.2 0.5,-0.1 1.1,0.3 1.2,0.8 0.1,0.5 -0.3,1.1 -0.8,1.2 -0.5,0.1 -2.8,1.3 -3.2,1.7 -0.2,0.2 -0.6,1.5 -0.9,2.9 0.3,0.2 0.7,0.4 1.1,0.5 0.5,0.1 0.9,0.6 0.8,1.2 -0.2,0.4 -0.6,0.7 -1.1,0.7 z"
   id="path453"
   inkscape:connector-curvature="0"
   style="fill:#ffffff" />
			</g>
			<g
   id="g455">
				<path
   d="m 48,351 c -0.6,0 -1,-0.4 -1,-1 0,-0.6 0.4,-1 1,-1 1.1,0 2,-0.9 2,-2 0,-0.8 -0.5,-1.6 -1.3,-1.9 -0.5,-0.2 -0.8,-0.8 -0.6,-1.3 0.2,-0.5 0.8,-0.8 1.3,-0.6 1.6,0.6 2.7,2.1 2.7,3.8 -0.1,2.2 -1.9,4 -4.1,4 z"
   id="path457"
   inkscape:connector-curvature="0"
   style="fill:#ffffff" />
			</g>
			<g
   id="g459">
				<path
   d="m 51,358 c -0.5,0 -0.9,-0.3 -1,-0.8 -0.1,-0.5 0.2,-1.1 0.8,-1.2 0.4,-0.1 0.8,-0.3 1.1,-0.5 -0.3,-1.4 -0.7,-2.7 -0.9,-3 -0.4,-0.3 -2.6,-1.5 -3.1,-1.6 -0.5,-0.1 -0.9,-0.6 -0.8,-1.2 0.1,-0.5 0.6,-0.9 1.1,-0.8 0.9,0.2 3.8,1.8 4.2,2.2 0.8,0.8 1.3,3.2 1.6,4.6 0.1,0.4 -0.1,0.7 -0.3,1 -0.1,0.1 -1.1,0.9 -2.4,1.2 -0.2,0.1 -0.2,0.1 -0.3,0.1 z"
   id="path461"
   inkscape:connector-curvature="0"
   style="fill:#ffffff" />
			</g>
		</g>
	</g>
	<g
   id="group_1_"
   display="inline"
   style="display:inline">
		<g
   id="g464">
			<path
   d="m 14,350 c -2.8,0 -5,-2.2 -5,-5 0,-2.8 2.2,-5 5,-5 2.8,0 5,2.2 5,5 0,2.8 -2.2,5 -5,5 z m 0,-8 c -1.7,0 -3,1.3 -3,3 0,1.7 1.3,3 3,3 1.7,0 3,-1.3 3,-3 0,-1.7 -1.3,-3 -3,-3 z"
   id="path466"
   inkscape:connector-curvature="0"
   style="fill:#191919" />
		</g>
		<g
   id="g468">
			<path
   d="M 14,361 C 9.8,361 7.4,358.8 7.3,358.7 7.1,358.5 7,358.2 7,357.9 c 0.1,-1.7 0.4,-4.7 1.3,-5.7 0.9,-1 3.9,-1.2 5.7,-1.3 0,0 0.1,0 0.1,0 1.7,0.1 4.7,0.4 5.7,1.3 1,0.9 1.2,3.9 1.3,5.7 0,0.3 -0.1,0.6 -0.3,0.8 -0.2,0.1 -2.6,2.3 -6.8,2.3 z m -5,-3.5 c 0.7,0.5 2.4,1.5 5,1.5 2.6,0 4.3,-1 5,-1.5 -0.1,-1.8 -0.4,-3.5 -0.7,-3.9 -0.3,-0.2 -2.4,-0.6 -4.3,-0.7 -1.9,0.1 -3.9,0.4 -4.3,0.7 -0.2,0.4 -0.5,2.2 -0.7,3.9 z"
   id="path470"
   inkscape:connector-curvature="0"
   style="fill:#191919" />
		</g>
		<g
   id="g472">
			<g
   id="g474">
				<path
   d="m 8,351 c -2.2,0 -4,-1.8 -4,-4 0,-1.7 1.1,-3.2 2.7,-3.8 0.5,-0.2 1.1,0.1 1.3,0.6 0.2,0.5 -0.1,1.1 -0.6,1.3 -0.8,0.3 -1.3,1 -1.3,1.9 0,1.1 0.9,2 2,2 0.6,0 1,0.4 1,1 0,0.6 -0.5,1 -1.1,1 z"
   id="path476"
   inkscape:connector-curvature="0"
   style="fill:#191919" />
			</g>
			<g
   id="g478">
				<path
   d="m 5,358 c -0.1,0 -0.1,0 -0.2,0 -1.3,-0.3 -2.3,-1.1 -2.4,-1.2 -0.3,-0.2 -0.4,-0.6 -0.3,-1 0.3,-1.4 0.8,-3.9 1.6,-4.6 0.4,-0.4 3.3,-2 4.2,-2.2 0.5,-0.1 1.1,0.3 1.2,0.8 0.1,0.5 -0.3,1.1 -0.8,1.2 -0.5,0.1 -2.8,1.3 -3.2,1.7 -0.2,0.2 -0.6,1.5 -0.9,2.9 0.3,0.2 0.7,0.4 1.1,0.5 0.5,0.1 0.9,0.6 0.8,1.2 C 5.9,357.7 5.5,358 5,358 Z"
   id="path480"
   inkscape:connector-curvature="0"
   style="fill:#191919" />
			</g>
			<g
   id="g482">
				<path
   d="m 20,351 c -0.6,0 -1,-0.4 -1,-1 0,-0.6 0.4,-1 1,-1 1.1,0 2,-0.9 2,-2 0,-0.8 -0.5,-1.6 -1.3,-1.9 -0.5,-0.2 -0.8,-0.8 -0.6,-1.3 0.2,-0.5 0.8,-0.8 1.3,-0.6 1.6,0.6 2.7,2.1 2.7,3.8 -0.1,2.2 -1.9,4 -4.1,4 z"
   id="path484"
   inkscape:connector-curvature="0"
   style="fill:#191919" />
			</g>
			<g
   id="g486">
				<path
   d="m 23,358 c -0.5,0 -0.9,-0.3 -1,-0.8 -0.1,-0.5 0.2,-1.1 0.8,-1.2 0.4,-0.1 0.8,-0.3 1.1,-0.5 -0.3,-1.4 -0.7,-2.7 -0.9,-3 -0.4,-0.3 -2.6,-1.5 -3.1,-1.6 -0.5,-0.1 -0.9,-0.6 -0.8,-1.2 0.1,-0.5 0.6,-0.9 1.1,-0.8 0.9,0.2 3.8,1.8 4.2,2.2 0.8,0.8 1.3,3.2 1.6,4.6 0.1,0.4 -0.1,0.7 -0.3,1 -0.1,0.1 -1.1,0.9 -2.4,1.2 -0.2,0.1 -0.2,0.1 -0.3,0.1 z"
   id="path488"
   inkscape:connector-curvature="0"
   style="fill:#191919" />
			</g>
		</g>
	</g>
	<g
   id="trade-on_2_"
   display="inline"
   style="display:inline">
		<g
   id="g491">
			<path
   d="m 34,323 c -0.2,0 -0.3,0 -0.4,-0.1 C 33.3,322.7 33,322.4 33,322 v -5 c 0,-0.3 0.1,-0.6 0.4,-0.8 l 4,-3 c 0.2,-0.1 0.4,-0.2 0.6,-0.2 h 5 v -2 c 0,-0.4 0.2,-0.8 0.6,-0.9 0.4,-0.2 0.8,-0.1 1.1,0.2 l 9,8 c 0.3,0.3 0.4,0.7 0.3,1.1 -0.1,0.4 -0.6,0.6 -1,0.6 H 38.3 l -3.7,2.8 c -0.2,0.1 -0.4,0.2 -0.6,0.2 z m 1,-5.5 v 2.5 l 2.4,-1.8 C 37.6,318.1 37.8,318 38,318 H 50.4 L 45,313.2 v 0.8 c 0,0.6 -0.4,1 -1,1 h -5.7 z"
   id="path493"
   inkscape:connector-curvature="0"
   style="fill:#ffffff" />
		</g>
		<g
   id="g495">
			<path
   d="m 40,334 c -0.2,0 -0.5,-0.1 -0.7,-0.3 l -9,-8 C 30,325.4 29.9,325 30,324.6 c 0.1,-0.4 0.5,-0.6 0.9,-0.6 h 14.7 l 3.7,-2.8 c 0.3,-0.2 0.7,-0.3 1,-0.1 0.3,0.2 0.6,0.5 0.6,0.9 v 5 c 0,0.3 -0.1,0.6 -0.4,0.8 l -4,3 c -0.2,0.1 -0.4,0.2 -0.6,0.2 h -5 v 2 c 0,0.4 -0.2,0.8 -0.6,0.9 0,0.1 -0.2,0.1 -0.3,0.1 z m -6.4,-8 5.4,4.8 V 330 c 0,-0.6 0.4,-1 1,-1 h 5.7 L 49,326.5 V 324 l -2.4,1.8 c -0.2,0.1 -0.4,0.2 -0.6,0.2 z"
   id="path497"
   inkscape:connector-curvature="0"
   style="fill:#ffffff" />
		</g>
	</g>
	<g
   id="trade_1_"
   display="inline"
   style="display:inline">
		<g
   id="g500">
			<path
   d="M 6,323 C 5.8,323 5.7,323 5.6,322.9 5.2,322.7 5,322.4 5,322 v -5 c 0,-0.3 0.1,-0.6 0.4,-0.8 l 4,-3 C 9.6,313.1 9.8,313 10,313 h 5 v -2 c 0,-0.4 0.2,-0.8 0.6,-0.9 0.4,-0.2 0.8,-0.1 1.1,0.2 l 9,8 c 0.3,0.3 0.4,0.7 0.3,1.1 -0.1,0.4 -0.6,0.6 -1,0.6 H 10.3 l -3.7,2.8 C 6.4,322.9 6.2,323 6,323 Z m 1,-5.5 v 2.5 l 2.4,-1.8 C 9.6,318.1 9.8,318 10,318 H 22.4 L 17,313.2 v 0.8 c 0,0.6 -0.4,1 -1,1 h -5.7 z"
   id="path502"
   inkscape:connector-curvature="0"
   style="fill:#191919" />
		</g>
		<g
   id="g504">
			<path
   d="m 12,334 c -0.2,0 -0.5,-0.1 -0.7,-0.3 l -9,-8 C 2,325.4 1.9,325 2,324.6 2.1,324.2 2.6,324 3,324 h 14.7 l 3.7,-2.8 c 0.3,-0.2 0.7,-0.3 1,-0.1 0.3,0.2 0.6,0.5 0.6,0.9 v 5 c 0,0.3 -0.1,0.6 -0.4,0.8 l -4,3 c -0.2,0.1 -0.4,0.2 -0.6,0.2 h -5 v 2 c 0,0.4 -0.2,0.8 -0.6,0.9 -0.1,0.1 -0.3,0.1 -0.4,0.1 z m -6.4,-8 5.4,4.8 V 330 c 0,-0.6 0.4,-1 1,-1 h 5.7 L 21,326.5 V 324 l -2.4,1.8 c -0.2,0.1 -0.4,0.2 -0.6,0.2 z"
   id="path506"
   inkscape:connector-curvature="0"
   style="fill:#191919" />
		</g>
	</g>
	<g
   id="inventory-on_2_"
   display="inline"
   style="display:inline">
		<g
   id="g509">
			<path
   d="M 50,306 H 34 c -0.6,0 -1,-0.4 -1,-1 v -14 c 0,-2.8 2.2,-5 5,-5 h 8 c 2.8,0 5,2.2 5,5 v 14 c 0,0.6 -0.4,1 -1,1 z m -15,-2 h 14 v -13 c 0,-1.7 -1.3,-3 -3,-3 h -8 c -1.7,0 -3,1.3 -3,3 z"
   id="path511"
   inkscape:connector-curvature="0"
   style="fill:#ffffff" />
		</g>
		<g
   id="g513">
			<path
   d="m 38,299 c -0.6,0 -1,-0.4 -1,-1 v -2 c 0,-0.6 0.4,-1 1,-1 0.6,0 1,0.4 1,1 v 2 c 0,0.6 -0.4,1 -1,1 z"
   id="path515"
   inkscape:connector-curvature="0"
   style="fill:#ffffff" />
		</g>
		<g
   id="g517">
			<path
   d="m 46,299 c -0.6,0 -1,-0.4 -1,-1 v -2 c 0,-0.6 0.4,-1 1,-1 0.6,0 1,0.4 1,1 v 2 c 0,0.6 -0.4,1 -1,1 z"
   id="path519"
   inkscape:connector-curvature="0"
   style="fill:#ffffff" />
		</g>
		<g
   id="g521">
			<path
   d="m 45.5,288 c -0.6,0 -1,-0.4 -1,-1 v -0.5 c 0,-1.4 -1.1,-2.5 -2.5,-2.5 -1.4,0 -2.5,1.1 -2.5,2.5 v 0.5 c 0,0.6 -0.4,1 -1,1 -0.6,0 -1,-0.4 -1,-1 v -0.5 c 0,-2.5 2,-4.5 4.5,-4.5 2.5,0 4.5,2 4.5,4.5 v 0.5 c 0,0.6 -0.4,1 -1,1 z"
   id="path523"
   inkscape:connector-curvature="0"
   style="fill:#ffffff" />
		</g>
		<g
   id="g525">
			<path
   d="m 44.9,297 h -5.8 c -2.3,0 -4.3,-1.3 -5.4,-3.3 l -0.6,-1.2 1.8,-0.9 0.6,1.2 c 0.7,1.4 2.1,2.2 3.6,2.2 h 5.8 c 1.5,0 2.9,-0.8 3.6,-2.2 l 0.6,-1.2 1.8,0.9 -0.6,1.2 c -1,2 -3.1,3.3 -5.4,3.3 z"
   id="path527"
   inkscape:connector-curvature="0"
   style="fill:#ffffff" />
		</g>
	</g>
	<g
   id="inventory_2_"
   display="inline"
   style="display:inline">
		<g
   id="g530">
			<path
   d="M 22,306 H 6 c -0.6,0 -1,-0.4 -1,-1 v -14 c 0,-2.8 2.2,-5 5,-5 h 8 c 2.8,0 5,2.2 5,5 v 14 c 0,0.6 -0.4,1 -1,1 z M 7,304 h 14 v -13 c 0,-1.7 -1.3,-3 -3,-3 h -8 c -1.7,0 -3,1.3 -3,3 z"
   id="path532"
   inkscape:connector-curvature="0"
   style="fill:#191919" />
		</g>
		<g
   id="g534">
			<path
   d="m 10,299 c -0.6,0 -1,-0.4 -1,-1 v -2 c 0,-0.6 0.4,-1 1,-1 0.6,0 1,0.4 1,1 v 2 c 0,0.6 -0.4,1 -1,1 z"
   id="path536"
   inkscape:connector-curvature="0"
   style="fill:#191919" />
		</g>
		<g
   id="g538">
			<path
   d="m 18,299 c -0.6,0 -1,-0.4 -1,-1 v -2 c 0,-0.6 0.4,-1 1,-1 0.6,0 1,0.4 1,1 v 2 c 0,0.6 -0.4,1 -1,1 z"
   id="path540"
   inkscape:connector-curvature="0"
   style="fill:#191919" />
		</g>
		<g
   id="g542">
			<path
   d="m 17.5,288 c -0.6,0 -1,-0.4 -1,-1 v -0.5 c 0,-1.4 -1.1,-2.5 -2.5,-2.5 -1.4,0 -2.5,1.1 -2.5,2.5 v 0.5 c 0,0.6 -0.4,1 -1,1 -0.6,0 -1,-0.4 -1,-1 v -0.5 c 0,-2.5 2,-4.5 4.5,-4.5 2.5,0 4.5,2 4.5,4.5 v 0.5 c 0,0.6 -0.4,1 -1,1 z"
   id="path544"
   inkscape:connector-curvature="0"
   style="fill:#191919" />
		</g>
		<g
   id="g546">
			<path
   d="m 16.9,297 h -5.8 c -2.3,0 -4.3,-1.3 -5.4,-3.3 l -0.6,-1.2 1.8,-0.9 0.6,1.2 c 0.7,1.4 2.1,2.2 3.6,2.2 h 5.8 c 1.5,0 2.9,-0.8 3.6,-2.2 l 0.6,-1.2 1.8,0.9 -0.6,1.2 c -1,2 -3.1,3.3 -5.4,3.3 z"
   id="path548"
   inkscape:connector-curvature="0"
   style="fill:#191919" />
		</g>
	</g>
	<g
   id="charactercustomizer-on_2_"
   display="inline"
   style="display:inline">
		<g
   id="g551">
			<path
   d="m 42,262 c -2.2,0 -4,-1.8 -4,-4 0,-2.2 1.8,-4 4,-4 2.2,0 4,1.8 4,4 0,2.2 -1.8,4 -4,4 z m 0,-6 c -1.1,0 -2,0.9 -2,2 0,1.1 0.9,2 2,2 1.1,0 2,-0.9 2,-2 0,-1.1 -0.9,-2 -2,-2 z"
   id="path553"
   inkscape:connector-curvature="0"
   style="fill:#ffffff" />
		</g>
		<g
   id="g555">
			<path
   d="m 48,278 h -3 c -0.4,0 -0.7,-0.2 -0.9,-0.6 l -2.1,-4.2 -2.1,4.2 c -0.2,0.3 -0.5,0.6 -0.9,0.6 h -3 c -0.3,0 -0.6,-0.1 -0.8,-0.4 -0.2,-0.2 -0.3,-0.5 -0.2,-0.8 l 1.8,-8 -3.1,-0.8 c -0.4,-0.1 -0.8,-0.5 -0.8,-1 v -3 c 0,-0.6 0.4,-1 1,-1 h 16 c 0.6,0 1,0.4 1,1 v 3 c 0,0.5 -0.3,0.9 -0.8,1 l -3.1,0.8 1.8,8 c 0.1,0.3 0,0.6 -0.2,0.8 0,0.3 -0.3,0.4 -0.6,0.4 z m -2.4,-2 h 1.1 L 45,268.2 c -0.1,-0.5 0.2,-1.1 0.7,-1.2 l 3.2,-0.8 V 265 H 35 v 1.2 l 3.2,0.8 c 0.5,0.1 0.9,0.7 0.7,1.2 l -1.7,7.8 h 1.1 l 2.7,-5.4 c 0.3,-0.7 1.4,-0.7 1.8,0 z"
   id="path557"
   inkscape:connector-curvature="0"
   style="fill:#ffffff" />
		</g>
	</g>
	<g
   id="charactercustomizer_1_"
   display="inline"
   style="display:inline">
		<g
   id="g560">
			<path
   d="m 14,262 c -2.2,0 -4,-1.8 -4,-4 0,-2.2 1.8,-4 4,-4 2.2,0 4,1.8 4,4 0,2.2 -1.8,4 -4,4 z m 0,-6 c -1.1,0 -2,0.9 -2,2 0,1.1 0.9,2 2,2 1.1,0 2,-0.9 2,-2 0,-1.1 -0.9,-2 -2,-2 z"
   id="path562"
   inkscape:connector-curvature="0"
   style="fill:#191919" />
		</g>
		<g
   id="g564">
			<path
   d="m 20,278 h -3 c -0.4,0 -0.7,-0.2 -0.9,-0.6 l -2.1,-4.2 -2.1,4.2 C 11.7,277.7 11.4,278 11,278 H 8 C 7.7,278 7.4,277.9 7.2,277.6 7,277.4 7,277.1 7,276.8 l 1.8,-8 -3,-0.8 C 5.4,267.9 5,267.5 5,267 v -3 c 0,-0.6 0.4,-1 1,-1 h 16 c 0.6,0 1,0.4 1,1 v 3 c 0,0.5 -0.3,0.9 -0.8,1 l -3.1,0.8 1.8,8 c 0.1,0.3 0,0.6 -0.2,0.8 -0.1,0.3 -0.4,0.4 -0.7,0.4 z m -2.4,-2 h 1.1 L 17,268.2 c -0.1,-0.5 0.2,-1.1 0.7,-1.2 l 3.2,-0.8 V 265 H 7 v 1.2 l 3.2,0.8 c 0.5,0.1 0.9,0.7 0.7,1.2 L 9.2,276 h 1.1 l 2.7,-5.4 c 0.3,-0.7 1.4,-0.7 1.8,0 z"
   id="path566"
   inkscape:connector-curvature="0"
   style="fill:#191919" />
		</g>
	</g>
	<g
   id="friends-on_2_"
   display="inline"
   style="display:inline">
		<g
   id="g569">
			<path
   d="m 39,238 c -3.3,0 -6,-2.7 -6,-6 0,-3.3 2.7,-6 6,-6 3.3,0 6,2.7 6,6 0,3.3 -2.7,6 -6,6 z m 0,-10 c -2.2,0 -4,1.8 -4,4 0,2.2 1.8,4 4,4 2.2,0 4,-1.8 4,-4 0,-2.2 -1.8,-4 -4,-4 z"
   id="path571"
   inkscape:connector-curvature="0"
   style="fill:#ffffff" />
		</g>
		<g
   id="g573">
			<path
   d="m 47,238.6 c -0.4,0 -0.8,-0.2 -0.9,-0.6 -0.2,-0.5 0,-1.1 0.5,-1.3 1.5,-0.6 2.4,-2.1 2.4,-3.7 0,-1.9 -1.3,-3.5 -3.2,-3.9 -0.5,-0.1 -0.9,-0.6 -0.8,-1.2 0.1,-0.5 0.6,-0.9 1.2,-0.8 2.8,0.6 4.8,3 4.8,5.9 0,2.4 -1.4,4.5 -3.6,5.5 -0.1,0.1 -0.3,0.1 -0.4,0.1 z"
   id="path575"
   inkscape:connector-curvature="0"
   style="fill:#ffffff" />
		</g>
		<g
   id="g577">
			<path
   d="m 39,250 c -5.2,0 -8.4,-2.1 -8.5,-2.2 -0.3,-0.2 -0.5,-0.6 -0.4,-1 0.2,-1.2 1.1,-5.4 2.3,-6.5 1.2,-1.2 5.1,-1.3 6.7,-1.3 1.6,0 5.5,0.1 6.7,1.3 1.1,1.1 2,5.3 2.3,6.5 0.1,0.4 -0.1,0.8 -0.4,1 -0.3,0.1 -3.5,2.2 -8.7,2.2 z m -6.9,-3.5 c 1.1,0.5 3.5,1.5 6.9,1.5 3.4,0 5.8,-1 6.9,-1.5 -0.5,-2.1 -1.2,-4.3 -1.6,-4.8 -0.4,-0.4 -2.9,-0.7 -5.3,-0.7 -2.4,0 -4.9,0.3 -5.3,0.7 -0.4,0.4 -1.1,2.7 -1.6,4.8 z"
   id="path579"
   inkscape:connector-curvature="0"
   style="fill:#ffffff" />
		</g>
		<g
   id="g581">
			<path
   d="m 50,249 c -0.4,0 -0.8,-0.3 -1,-0.7 -0.2,-0.5 0.1,-1.1 0.7,-1.2 1.1,-0.3 1.8,-1 2.2,-1.3 -0.5,-2.2 -1.2,-4.6 -1.6,-5 -0.6,-0.6 -2.6,-2 -3.4,-2.1 -0.5,-0.1 -0.9,-0.6 -0.9,-1.1 0.1,-0.5 0.5,-1 1.1,-0.9 1.7,0.2 4.3,2.4 4.6,2.7 1.1,1.1 2,5.3 2.3,6.5 0.1,0.3 0,0.6 -0.2,0.8 -0.1,0.1 -1.3,1.7 -3.5,2.4 C 50.2,249 50.1,249 50,249 Z"
   id="path583"
   inkscape:connector-curvature="0"
   style="fill:#ffffff" />
		</g>
	</g>
	<g
   id="friends_1_"
   display="inline"
   style="display:inline">
		<g
   id="g586">
			<path
   d="m 11,238 c -3.3,0 -6,-2.7 -6,-6 0,-3.3 2.7,-6 6,-6 3.3,0 6,2.7 6,6 0,3.3 -2.7,6 -6,6 z m 0,-10 c -2.2,0 -4,1.8 -4,4 0,2.2 1.8,4 4,4 2.2,0 4,-1.8 4,-4 0,-2.2 -1.8,-4 -4,-4 z"
   id="path588"
   inkscape:connector-curvature="0"
   style="fill:#191919" />
		</g>
		<g
   id="g590">
			<path
   d="m 19,238.6 c -0.4,0 -0.8,-0.2 -0.9,-0.6 -0.2,-0.5 0,-1.1 0.5,-1.3 1.5,-0.6 2.4,-2.1 2.4,-3.7 0,-1.9 -1.3,-3.5 -3.2,-3.9 -0.5,-0.1 -0.9,-0.6 -0.8,-1.2 0.1,-0.5 0.6,-0.9 1.2,-0.8 2.8,0.6 4.8,3 4.8,5.9 0,2.4 -1.4,4.5 -3.6,5.5 -0.1,0.1 -0.3,0.1 -0.4,0.1 z"
   id="path592"
   inkscape:connector-curvature="0"
   style="fill:#191919" />
		</g>
		<g
   id="g594">
			<path
   d="m 11,250 c -5.2,0 -8.4,-2.1 -8.5,-2.2 -0.3,-0.2 -0.5,-0.6 -0.4,-1 0.2,-1.2 1.1,-5.4 2.3,-6.5 1.2,-1.2 5.1,-1.3 6.7,-1.3 1.6,0 5.5,0.1 6.7,1.3 1.1,1.1 2,5.3 2.3,6.5 0.1,0.4 -0.1,0.8 -0.4,1 -0.3,0.1 -3.5,2.2 -8.7,2.2 z m -6.9,-3.5 c 1.1,0.5 3.5,1.5 6.9,1.5 3.4,0 5.8,-1 6.9,-1.5 -0.5,-2.1 -1.2,-4.3 -1.6,-4.8 -0.4,-0.4 -2.9,-0.7 -5.3,-0.7 -2.4,0 -4.9,0.3 -5.3,0.7 -0.4,0.4 -1.1,2.7 -1.6,4.8 z"
   id="path596"
   inkscape:connector-curvature="0"
   style="fill:#191919" />
		</g>
		<g
   id="g598">
			<path
   d="m 22,249 c -0.4,0 -0.8,-0.3 -1,-0.7 -0.2,-0.5 0.1,-1.1 0.7,-1.2 1.1,-0.3 1.8,-1 2.2,-1.3 -0.5,-2.2 -1.2,-4.6 -1.6,-5 -0.6,-0.6 -2.6,-2 -3.4,-2.1 -0.5,-0.1 -0.9,-0.6 -0.9,-1.1 0.1,-0.5 0.5,-1 1.1,-0.9 1.7,0.2 4.3,2.4 4.6,2.7 1.1,1.1 2,5.3 2.3,6.5 0.1,0.3 0,0.6 -0.2,0.8 -0.1,0.1 -1.3,1.7 -3.5,2.4 C 22.2,249 22.1,249 22,249 Z"
   id="path600"
   inkscape:connector-curvature="0"
   style="fill:#191919" />
		</g>
	</g>
	<g
   id="message-on_2_"
   display="inline"
   style="display:inline">
		<g
   id="g603">
			<path
   d="m 42,221 c -0.3,0 -0.5,-0.1 -0.7,-0.3 L 37.6,217 H 31 c -0.6,0 -1,-0.4 -1,-1 v -16 c 0,-0.6 0.4,-1 1,-1 h 22 c 0.6,0 1,0.4 1,1 v 16 c 0,0.6 -0.4,1 -1,1 h -6.6 l -3.7,3.7 c -0.2,0.2 -0.4,0.3 -0.7,0.3 z m -10,-6 h 6 c 0.3,0 0.5,0.1 0.7,0.3 l 3.3,3.3 3.3,-3.3 c 0.2,-0.2 0.4,-0.3 0.7,-0.3 h 6 V 201 H 32 Z"
   id="path605"
   inkscape:connector-curvature="0"
   style="fill:#ffffff" />
		</g>
		<g
   id="g607">
			<path
   d="M 48,207 H 36 c -0.6,0 -1,-0.4 -1,-1 0,-0.6 0.4,-1 1,-1 h 12 c 0.6,0 1,0.4 1,1 0,0.6 -0.4,1 -1,1 z"
   id="path609"
   inkscape:connector-curvature="0"
   style="fill:#ffffff" />
		</g>
		<g
   id="g611">
			<path
   d="M 48,211 H 36 c -0.6,0 -1,-0.4 -1,-1 0,-0.6 0.4,-1 1,-1 h 12 c 0.6,0 1,0.4 1,1 0,0.6 -0.4,1 -1,1 z"
   id="path613"
   inkscape:connector-curvature="0"
   style="fill:#ffffff" />
		</g>
	</g>
	<g
   id="message_1_"
   display="inline"
   style="display:inline">
		<g
   id="g616">
			<path
   d="m 14,221 c -0.3,0 -0.5,-0.1 -0.7,-0.3 L 9.6,217 H 3 c -0.6,0 -1,-0.4 -1,-1 v -16 c 0,-0.6 0.4,-1 1,-1 h 22 c 0.6,0 1,0.4 1,1 v 16 c 0,0.6 -0.4,1 -1,1 h -6.6 l -3.7,3.7 C 14.5,220.9 14.3,221 14,221 Z M 4,215 h 6 c 0.3,0 0.5,0.1 0.7,0.3 l 3.3,3.3 3.3,-3.3 c 0.2,-0.2 0.4,-0.3 0.7,-0.3 h 6 V 201 H 4 Z"
   id="path618"
   inkscape:connector-curvature="0"
   style="fill:#191919" />
		</g>
		<g
   id="g620">
			<path
   d="M 20,207 H 8 c -0.6,0 -1,-0.4 -1,-1 0,-0.6 0.4,-1 1,-1 h 12 c 0.6,0 1,0.4 1,1 0,0.6 -0.4,1 -1,1 z"
   id="path622"
   inkscape:connector-curvature="0"
   style="fill:#191919" />
		</g>
		<g
   id="g624">
			<path
   d="M 20,211 H 8 c -0.6,0 -1,-0.4 -1,-1 0,-0.6 0.4,-1 1,-1 h 12 c 0.6,0 1,0.4 1,1 0,0.6 -0.4,1 -1,1 z"
   id="path626"
   inkscape:connector-curvature="0"
   style="fill:#191919" />
		</g>
	</g>
	<g
   id="profile-on_2_"
   display="inline"
   style="display:inline">
		<g
   id="g629">
			<path
   d="m 42,182 c -3.3,0 -6,-2.7 -6,-6 0,-3.3 2.7,-6 6,-6 3.3,0 6,2.7 6,6 0,3.3 -2.7,6 -6,6 z m 0,-10 c -2.2,0 -4,1.8 -4,4 0,2.2 1.8,4 4,4 2.2,0 4,-1.8 4,-4 0,-2.2 -1.8,-4 -4,-4 z"
   id="path631"
   inkscape:connector-curvature="0"
   style="fill:#ffffff" />
		</g>
		<g
   id="g633">
			<path
   d="m 42,194 c -5.2,0 -8.4,-2.1 -8.5,-2.2 -0.3,-0.2 -0.5,-0.6 -0.4,-1 0.2,-1.2 1.1,-5.4 2.3,-6.5 1.2,-1.2 5.1,-1.3 6.7,-1.3 1.6,0 5.5,0.1 6.7,1.3 1.1,1.1 2,5.3 2.3,6.5 0.1,0.4 -0.1,0.8 -0.4,1 -0.3,0.1 -3.5,2.2 -8.7,2.2 z m -6.9,-3.5 c 1.1,0.5 3.5,1.5 6.9,1.5 3.4,0 5.8,-1 6.9,-1.5 -0.5,-2.1 -1.2,-4.3 -1.6,-4.8 -0.4,-0.4 -2.9,-0.7 -5.3,-0.7 -2.4,0 -4.9,0.3 -5.3,0.7 -0.4,0.4 -1.1,2.7 -1.6,4.8 z"
   id="path635"
   inkscape:connector-curvature="0"
   style="fill:#ffffff" />
		</g>
	</g>
	<g
   id="profile_1_"
   display="inline"
   style="display:inline">
		<g
   id="g638">
			<path
   d="m 14,182 c -3.3,0 -6,-2.7 -6,-6 0,-3.3 2.7,-6 6,-6 3.3,0 6,2.7 6,6 0,3.3 -2.7,6 -6,6 z m 0,-10 c -2.2,0 -4,1.8 -4,4 0,2.2 1.8,4 4,4 2.2,0 4,-1.8 4,-4 0,-2.2 -1.8,-4 -4,-4 z"
   id="path640"
   inkscape:connector-curvature="0"
   style="fill:#191919" />
		</g>
		<g
   id="g642">
			<path
   d="m 14,194 c -5.2,0 -8.4,-2.1 -8.5,-2.2 -0.3,-0.2 -0.5,-0.6 -0.4,-1 0.2,-1.2 1.1,-5.4 2.3,-6.5 1.2,-1.2 5.1,-1.3 6.7,-1.3 1.6,0 5.5,0.1 6.7,1.3 1.1,1.1 2,5.3 2.3,6.5 0.1,0.4 -0.1,0.8 -0.4,1 -0.3,0.1 -3.5,2.2 -8.7,2.2 z m -6.9,-3.5 c 1.1,0.5 3.5,1.5 6.9,1.5 3.4,0 5.8,-1 6.9,-1.5 -0.5,-2.1 -1.2,-4.3 -1.6,-4.8 -0.4,-0.4 -2.9,-0.7 -5.3,-0.7 -2.4,0 -4.9,0.3 -5.3,0.7 -0.4,0.4 -1.1,2.7 -1.6,4.8 z"
   id="path644"
   inkscape:connector-curvature="0"
   style="fill:#191919" />
		</g>
	</g>
	<g
   id="home-on_2_"
   display="inline"
   style="display:inline">
		<path
   d="m 51,165 h -7 c -0.6,0 -1,-0.4 -1,-1 v -6 h -2 v 6 c 0,0.6 -0.4,1 -1,1 h -7 c -0.6,0 -1,-0.4 -1,-1 v -9 h -1 c -0.4,0 -0.8,-0.3 -0.9,-0.6 -0.1,-0.4 0,-0.8 0.3,-1.1 l 11,-10 c 0.4,-0.3 1,-0.3 1.3,0 l 11,10 c 0.3,0.3 0.4,0.7 0.3,1.1 -0.1,0.4 -0.5,0.6 -0.9,0.6 h -1 v 9 c -0.1,0.6 -0.5,1 -1.1,1 z m -6,-2 h 5 v -9 c 0,-0.4 0.2,-0.7 0.5,-0.9 l -8.5,-7.8 -8.5,7.8 c 0.3,0.2 0.5,0.5 0.5,0.9 v 9 h 5 v -6 c 0,-0.6 0.4,-1 1,-1 h 4 c 0.6,0 1,0.4 1,1 z"
   id="path647"
   inkscape:connector-curvature="0"
   style="fill:#ffffff" />
	</g>
	<g
   id="home_2_"
   display="inline"
   style="display:inline">
		<path
   d="m 23,165 h -7 c -0.6,0 -1,-0.4 -1,-1 v -6 h -2 v 6 c 0,0.6 -0.4,1 -1,1 H 5 c -0.6,0 -1,-0.4 -1,-1 v -9 H 3 c -0.4,0 -0.8,-0.3 -0.9,-0.6 -0.1,-0.4 0,-0.8 0.3,-1.1 l 11,-10 c 0.4,-0.3 1,-0.3 1.3,0 l 11,10 c 0.3,0.3 0.4,0.7 0.3,1.1 -0.1,0.4 -0.5,0.6 -0.9,0.6 h -1 v 9 c -0.1,0.6 -0.5,1 -1.1,1 z m -6,-2 h 5 v -9 c 0,-0.4 0.2,-0.7 0.5,-0.9 l -8.5,-7.8 -8.5,7.8 c 0.3,0.2 0.5,0.5 0.5,0.9 v 9 h 5 v -6 c 0,-0.6 0.4,-1 1,-1 h 4 c 0.6,0 1,0.4 1,1 z"
   id="path650"
   inkscape:connector-curvature="0"
   style="fill:#191919" />
	</g>
	<g
   id="settings-on_2_"
   display="inline"
   style="display:inline">
		<path
   d="M 53,96 H 51.8 C 51.5,94.7 51,93.5 50.3,92.5 l 0.9,-0.9 c 0.4,-0.4 0.4,-1 0,-1.4 l -1.4,-1.4 c -0.4,-0.4 -1,-0.4 -1.4,0 l -0.9,0.9 C 46.5,89 45.3,88.5 44,88.2 V 87 c 0,-0.6 -0.4,-1 -1,-1 h -2 c -0.6,0 -1,0.4 -1,1 v 1.2 c -1.3,0.3 -2.5,0.8 -3.5,1.5 l -0.9,-0.9 c -0.4,-0.4 -1,-0.4 -1.4,0 l -1.4,1.4 c -0.4,0.4 -0.4,1 0,1.4 l 0.9,0.9 c -0.7,1 -1.2,2.2 -1.5,3.5 H 31 c -0.6,0 -1,0.4 -1,1 v 2 c 0,0.6 0.4,1 1,1 h 1.2 c 0.3,1.3 0.8,2.5 1.5,3.5 l -0.9,0.9 c -0.4,0.4 -0.4,1 0,1.4 l 1.4,1.4 c 0.4,0.4 1,0.4 1.4,0 l 0.9,-0.9 c 1,0.7 2.2,1.2 3.5,1.5 v 1.2 c 0,0.6 0.4,1 1,1 h 2 c 0.6,0 1,-0.4 1,-1 v -1.2 c 1.3,-0.3 2.5,-0.8 3.5,-1.5 l 0.9,0.9 c 0.4,0.4 1,0.4 1.4,0 l 1.4,-1.4 c 0.4,-0.4 0.4,-1 0,-1.4 l -0.9,-0.9 c 0.7,-1 1.2,-2.2 1.5,-3.5 H 53 c 0.6,0 1,-0.4 1,-1 v -2 c 0,-0.6 -0.4,-1 -1,-1 z m -11,8 c -3.3,0 -6,-2.7 -6,-6 0,-3.3 2.7,-6 6,-6 3.3,0 6,2.7 6,6 0,3.3 -2.7,6 -6,6 z"
   id="path653"
   inkscape:connector-curvature="0"
   style="fill:#ffffff" />
	</g>
	<g
   id="settings_2_"
   display="inline"
   style="display:inline">
		<g
   id="g656">
			<path
   d="m 16,110 h -4 c -0.6,0 -1,-0.4 -1,-1 v -1.5 c -0.6,-0.2 -1.1,-0.4 -1.6,-0.7 l -0.9,0.9 c -0.4,0.4 -1,0.4 -1.4,0 L 4.2,105 c -0.4,-0.4 -0.4,-1 0,-1.4 l 0.9,-0.9 C 4.8,102.2 4.6,101.6 4.4,101.1 H 3 c -0.6,0 -1,-0.4 -1,-1 v -4 c 0,-0.6 0.4,-1 1,-1 H 4.5 C 4.7,94.5 4.9,94 5.2,93.5 L 4.3,92.6 c -0.4,-0.4 -0.4,-1 0,-1.4 L 7,88.2 C 7.2,88 7.4,87.9 7.7,87.9 v 0 c 0.3,0 0.5,0.1 0.7,0.3 l 0.9,0.9 c 0.5,-0.3 1.1,-0.5 1.6,-0.7 V 87 c 0,-0.6 0.4,-1 1,-1 h 4 c 0.6,0 1,0.4 1,1 v 1.5 c 0.6,0.2 1.1,0.4 1.6,0.7 l 0.9,-0.9 c 0.4,-0.4 1,-0.4 1.4,0 l 2.8,2.8 c 0.4,0.4 0.4,1 0,1.4 l -0.9,0.9 c 0.3,0.5 0.5,1.1 0.7,1.6 H 25 c 0.6,0 1,0.4 1,1 v 4 c 0,0.6 -0.4,1 -1,1 h -1.5 c -0.2,0.6 -0.4,1.1 -0.7,1.6 l 0.9,0.9 c 0.4,0.4 0.4,1 0,1.4 l -2.8,2.8 c -0.2,0.2 -0.4,0.3 -0.7,0.3 v 0 c -0.3,0 -0.5,-0.1 -0.7,-0.3 l -0.9,-0.9 c -0.5,0.3 -1.1,0.5 -1.6,0.7 v 1.5 c 0,0.6 -0.4,1 -1,1 z m -3,-2 h 2 v -1.2 c 0,-0.5 0.3,-0.9 0.8,-1 0.9,-0.2 1.7,-0.5 2.5,-1 0.4,-0.2 0.9,-0.2 1.2,0.1 l 0.8,0.8 1.4,-1.4 -0.8,-0.8 c -0.3,-0.3 -0.4,-0.8 -0.1,-1.2 0.5,-0.8 0.8,-1.6 1,-2.5 0.1,-0.5 0.5,-0.8 1,-0.8 H 24 v -2 h -1.2 c -0.5,0 -0.9,-0.3 -1,-0.8 -0.2,-0.9 -0.5,-1.7 -1,-2.5 -0.2,-0.4 -0.2,-0.9 0.1,-1.2 l 0.8,-0.8 -1.4,-1.4 -0.8,0.8 c -0.3,0.3 -0.8,0.4 -1.2,0.1 -0.8,-0.5 -1.6,-0.8 -2.5,-1 C 15.3,90.1 15,89.7 15,89.2 V 88 h -2 v 1.2 c 0,0.5 -0.3,0.9 -0.8,1 -0.9,0.2 -1.7,0.5 -2.5,1 -0.4,0.2 -0.9,0.2 -1.2,-0.1 l -0.8,-0.8 -1.4,1.4 0.8,0.8 c 0.3,0.3 0.4,0.8 0.1,1.2 -0.5,0.8 -0.8,1.6 -1,2.5 C 6.1,96.7 5.7,97 5.2,97 H 4 v 2 h 1.2 c 0.5,0 0.9,0.3 1,0.8 0.2,0.9 0.5,1.7 1,2.5 0.2,0.4 0.2,0.9 -0.1,1.2 l -0.8,0.8 1.4,1.4 0.8,-0.8 c 0.3,-0.3 0.8,-0.4 1.2,-0.1 0.8,0.5 1.6,0.8 2.5,1 0.5,0.1 0.8,0.5 0.8,1 z"
   id="path658"
   inkscape:connector-curvature="0"
   style="fill:#ffffff" />
		</g>
		<g
   id="g660">
			<path
   d="m 14,104 c -3.3,0 -6,-2.7 -6,-6 0,-3.3 2.7,-6 6,-6 3.3,0 6,2.7 6,6 0,3.3 -2.7,6 -6,6 z m 0,-10 c -2.2,0 -4,1.8 -4,4 0,2.2 1.8,4 4,4 2.2,0 4,-1.8 4,-4 0,-2.2 -1.8,-4 -4,-4 z"
   id="path662"
   inkscape:connector-curvature="0"
   style="fill:#ffffff" />
		</g>
	</g>
	<g
   id="tix-on_2_"
   display="inline"
   style="display:inline">
		<path
   d="m 51,65 h -2 l -2,-2 v -2 l -3,-3 -14,14 3,3 h 2 l 2,2 v 2 l 3,3 14,-14 z m -6.3,7.7 C 44.5,72.9 44.3,73 44,73 43.7,73 43.5,72.9 43.3,72.7 L 40,69.4 38.7,70.7 C 38.5,70.9 38.3,71 38,71 c -0.3,0 -0.5,-0.1 -0.7,-0.3 -0.4,-0.4 -0.4,-1 0,-1.4 l 4,-4 c 0.4,-0.4 1,-0.4 1.4,0 0.4,0.4 0.4,1 0,1.4 l -1.3,1.3 3.3,3.3 c 0.4,0.4 0.4,1 0,1.4 z"
   id="path665"
   inkscape:connector-curvature="0"
   style="fill:#ffffff" />
	</g>
	<g
   id="tix_1_"
   display="inline"
   style="display:inline">
		<g
   id="g668">
			<path
   d="m 12,82 c -0.3,0 -0.5,-0.1 -0.7,-0.3 l -3,-3 C 8.1,78.5 8,78.3 8,78 V 76.4 L 7.6,76 H 6 C 5.7,76 5.5,75.9 5.3,75.7 l -3,-3 c -0.4,-0.4 -0.4,-1 0,-1.4 l 13,-13 c 0.4,-0.4 1,-0.4 1.4,0 l 3,3 c 0.2,0.2 0.3,0.4 0.3,0.7 v 1.6 L 20.4,64 H 22 c 0.3,0 0.5,0.1 0.7,0.3 l 3,3 c 0.4,0.4 0.4,1 0,1.4 l -13,13 C 12.5,81.9 12.3,82 12,82 Z m -2,-4.4 2,2 11.6,-11.6 -2,-2 H 20 c -0.3,0 -0.5,-0.1 -0.7,-0.3 l -1,-1 C 18.1,64.5 18,64.3 18,64 v -1.6 l -2,-2 -11.6,11.6 2,2 H 8 c 0.3,0 0.5,0.1 0.7,0.3 l 1,1 C 9.9,75.5 10,75.7 10,76 Z"
   id="path670"
   inkscape:connector-curvature="0"
   style="fill:#ffffff" />
		</g>
		<g
   id="g672">
			<path
   d="m 10,71 c -0.3,0 -0.5,-0.1 -0.7,-0.3 -0.4,-0.4 -0.4,-1 0,-1.4 l 4,-4 c 0.4,-0.4 1,-0.4 1.4,0 0.4,0.4 0.4,1 0,1.4 l -4,4 C 10.5,70.9 10.3,71 10,71 Z"
   id="path674"
   inkscape:connector-curvature="0"
   style="fill:#ffffff" />
		</g>
		<g
   id="g676">
			<path
   d="m 16,73 c -0.3,0 -0.5,-0.1 -0.7,-0.3 l -4,-4 c -0.4,-0.4 -0.4,-1 0,-1.4 0.4,-0.4 1,-0.4 1.4,0 l 4,4 c 0.4,0.4 0.4,1 0,1.4 C 16.5,72.9 16.3,73 16,73 Z"
   id="path678"
   inkscape:connector-curvature="0"
   style="fill:#ffffff" />
		</g>
	</g>
	<g
   id="robux-on_2_"
   display="inline"
   style="display:inline">
		<path
   d="m 37,39 v 2 h 2.6 c 0.1,-0.5 0.1,-1.5 0,-2 z"
   id="path681"
   inkscape:connector-curvature="0"
   style="fill:#ffffff" />
		<path
   d="m 42,30 c -6.6,0 -12,5.4 -12,12 0,6.6 5.4,12 12,12 6.6,0 12,-5.4 12,-12 0,-6.6 -5.4,-12 -12,-12 z m 5,17 v 1 c 0,0.6 -0.4,1 -1,1 -0.6,0 -1,-0.4 -1,-1 v -1 h -3 c -0.2,0 -0.4,-0.1 -0.6,-0.2 L 37,43.3 V 46 c 0,0.6 -0.4,1 -1,1 -0.6,0 -1,-0.4 -1,-1 v -8 c 0,-0.6 0.4,-1 1,-1 h 4 c 1.1,0 1.7,1.1 1.7,3 0,0.6 -0.1,1.2 -0.2,1.7 C 41.1,42.9 40.3,43 40,43 h -0.1 l 2.5,2 H 47 c 0.3,0 0.5,-0.5 0.5,-1 0,-0.4 -0.1,-1 -0.5,-1 h -2 c -1.4,0 -2.5,-1.3 -2.5,-3 0,-0.7 0.2,-1.4 0.5,-1.9 0.5,-0.7 1.2,-1.1 2,-1.1 v -1 c 0,-0.6 0.4,-1 1,-1 0.6,0 1,0.4 1,1 v 1 h 1 c 0.6,0 1,0.4 1,1 0,0.6 -0.4,1 -1,1 h -3 c -0.1,0 -0.2,0 -0.3,0.2 -0.1,0.2 -0.2,0.5 -0.2,0.8 0,0.4 0.2,1 0.5,1 h 2 c 1.4,0 2.5,1.3 2.5,3 0,1.7 -1.1,3 -2.5,3 z"
   id="path683"
   inkscape:connector-curvature="0"
   style="fill:#ffffff" />
	</g>
	<g
   id="robux_1_"
   display="inline"
   style="display:inline">
		<g
   id="g686">
			<path
   d="M 14,54 C 7.4,54 2,48.6 2,42 2,35.4 7.4,30 14,30 c 6.6,0 12,5.4 12,12 0,6.6 -5.4,12 -12,12 z M 14,32 C 8.5,32 4,36.5 4,42 4,47.5 8.5,52 14,52 19.5,52 24,47.5 24,42 24,36.5 19.5,32 14,32 Z"
   id="path688"
   inkscape:connector-curvature="0"
   style="fill:#ffffff" />
		</g>
		<g
   id="g690">
			<g
   id="g692">
				<path
   d="m 19,47 h -5 c -0.2,0 -0.4,-0.1 -0.6,-0.2 L 9,43.3 V 46 C 9,46.6 8.6,47 8,47 7.4,47 7,46.6 7,46 v -8 c 0,-0.6 0.4,-1 1,-1 h 4 c 1.1,0 1.7,1.1 1.7,3 0,0.6 -0.1,1.2 -0.2,1.7 C 13.1,42.9 12.3,43 12,43 h -0.1 l 2.5,2 H 19 c 0.3,0 0.5,-0.5 0.5,-1 0,-0.4 -0.1,-1 -0.5,-1 h -2 c -1.4,0 -2.5,-1.3 -2.5,-3 0,-0.7 0.2,-1.4 0.5,-1.9 0.5,-0.7 1.2,-1.1 2,-1.1 h 3 c 0.6,0 1,0.4 1,1 0,0.6 -0.4,1 -1,1 h -3 c -0.1,0 -0.2,0 -0.3,0.2 -0.1,0.2 -0.2,0.5 -0.2,0.8 0,0.4 0.2,1 0.5,1 h 2 c 1.4,0 2.5,1.3 2.5,3 0,1.7 -1.1,3 -2.5,3 z M 9,41 h 2.6 c 0.1,-0.5 0.1,-1.5 0,-2 H 9 Z"
   id="path694"
   inkscape:connector-curvature="0"
   style="fill:#ffffff" />
			</g>
			<g
   id="g696">
				<path
   d="m 18,38 c -0.6,0 -1,-0.4 -1,-1 v -1 c 0,-0.6 0.4,-1 1,-1 0.6,0 1,0.4 1,1 v 1 c 0,0.6 -0.4,1 -1,1 z"
   id="path698"
   inkscape:connector-curvature="0"
   style="fill:#ffffff" />
			</g>
			<g
   id="g700">
				<path
   d="m 18,49 c -0.6,0 -1,-0.4 -1,-1 v -1 c 0,-0.6 0.4,-1 1,-1 0.6,0 1,0.4 1,1 v 1 c 0,0.6 -0.4,1 -1,1 z"
   id="path702"
   inkscape:connector-curvature="0"
   style="fill:#ffffff" />
			</g>
		</g>
	</g>
	<g
   id="menu-on_2_"
   display="inline"
   style="display:inline">
		<g
   id="g705">
			<path
   d="M 50,10 H 34 C 33.4,10 33,9.6 33,9 33,8.4 33.4,8 34,8 h 16 c 0.6,0 1,0.4 1,1 0,0.6 -0.4,1 -1,1 z"
   id="path707"
   inkscape:connector-curvature="0"
   style="fill:#ffffff" />
		</g>
		<g
   id="g709">
			<path
   d="M 50,15 H 34 c -0.6,0 -1,-0.4 -1,-1 0,-0.6 0.4,-1 1,-1 h 16 c 0.6,0 1,0.4 1,1 0,0.6 -0.4,1 -1,1 z"
   id="path711"
   inkscape:connector-curvature="0"
   style="fill:#ffffff" />
		</g>
		<g
   id="g713">
			<path
   d="M 50,20 H 34 c -0.6,0 -1,-0.4 -1,-1 0,-0.6 0.4,-1 1,-1 h 16 c 0.6,0 1,0.4 1,1 0,0.6 -0.4,1 -1,1 z"
   id="path715"
   inkscape:connector-curvature="0"
   style="fill:#ffffff" />
		</g>
	</g>
	<g
   id="menu_1_"
   display="inline"
   style="display:inline">
		<g
   id="g718">
			<path
   d="M 22,10 H 6 C 5.4,10 5,9.6 5,9 5,8.4 5.4,8 6,8 h 16 c 0.6,0 1,0.4 1,1 0,0.6 -0.4,1 -1,1 z"
   id="path720"
   inkscape:connector-curvature="0"
   style="fill:#ffffff" />
		</g>
		<g
   id="g722">
			<path
   d="M 22,15 H 6 C 5.4,15 5,14.6 5,14 5,13.4 5.4,13 6,13 h 16 c 0.6,0 1,0.4 1,1 0,0.6 -0.4,1 -1,1 z"
   id="path724"
   inkscape:connector-curvature="0"
   style="fill:#ffffff" />
		</g>
		<g
   id="g726">
			<path
   d="M 22,20 H 6 C 5.4,20 5,19.6 5,19 5,18.4 5.4,18 6,18 h 16 c 0.6,0 1,0.4 1,1 0,0.6 -0.4,1 -1,1 z"
   id="path728"
   inkscape:connector-curvature="0"
   style="fill:#ffffff" />
		</g>
	</g>
	<g
   id="search_8_"
   display="inline"
   style="display:inline">
		<g
   id="g731">
			<path
   d="m 12,133 c -5,0 -9,-4 -9,-9 0,-5 4,-9 9,-9 5,0 9,4 9,9 0,5 -4,9 -9,9 z m 0,-16 c -3.9,0 -7,3.1 -7,7 0,3.9 3.1,7 7,7 3.9,0 7,-3.1 7,-7 0,-3.9 -3.1,-7 -7,-7 z"
   id="path733"
   inkscape:connector-curvature="0"
   style="fill:#191919" />
		</g>
		<g
   id="g735">
			<path
   d="m 24,137 c -0.3,0 -0.5,-0.1 -0.7,-0.3 l -6,-6 c -0.4,-0.4 -0.4,-1 0,-1.4 0.4,-0.4 1,-0.4 1.4,0 l 6,6 c 0.4,0.4 0.4,1 0,1.4 -0.2,0.2 -0.4,0.3 -0.7,0.3 z"
   id="path737"
   inkscape:connector-curvature="0"
   style="fill:#191919" />
		</g>
		<g
   id="g739">
			<path
   d="m 16,125 c -0.6,0 -1,-0.4 -1,-1 0,-1.7 -1.3,-3 -3,-3 -0.6,0 -1,-0.4 -1,-1 0,-0.6 0.4,-1 1,-1 2.8,0 5,2.2 5,5 0,0.6 -0.4,1 -1,1 z"
   id="path741"
   inkscape:connector-curvature="0"
   style="fill:#191919" />
		</g>
	</g>
	<g
   id="search_7_"
   display="inline"
   style="display:inline">
		<g
   id="g744">
			<path
   d="m 40,133 c -5,0 -9,-4 -9,-9 0,-5 4,-9 9,-9 5,0 9,4 9,9 0,5 -4,9 -9,9 z m 0,-16 c -3.9,0 -7,3.1 -7,7 0,3.9 3.1,7 7,7 3.9,0 7,-3.1 7,-7 0,-3.9 -3.1,-7 -7,-7 z"
   id="path746"
   inkscape:connector-curvature="0"
   style="fill:#00a2ff" />
		</g>
		<g
   id="g748">
			<path
   d="m 52,137 c -0.3,0 -0.5,-0.1 -0.7,-0.3 l -6,-6 c -0.4,-0.4 -0.4,-1 0,-1.4 0.4,-0.4 1,-0.4 1.4,0 l 6,6 c 0.4,0.4 0.4,1 0,1.4 -0.2,0.2 -0.4,0.3 -0.7,0.3 z"
   id="path750"
   inkscape:connector-curvature="0"
   style="fill:#00a2ff" />
		</g>
		<g
   id="g752">
			<path
   d="m 44,125 c -0.6,0 -1,-0.4 -1,-1 0,-1.7 -1.3,-3 -3,-3 -0.6,0 -1,-0.4 -1,-1 0,-0.6 0.4,-1 1,-1 2.8,0 5,2.2 5,5 0,0.6 -0.4,1 -1,1 z"
   id="path754"
   inkscape:connector-curvature="0"
   style="fill:#00a2ff" />
		</g>
	</g>
	<g
   id="search_6_"
   display="inline"
   style="display:inline">
		<g
   id="g757">
			<path
   d="m 12,441 c -5,0 -9,-4 -9,-9 0,-5 4,-9 9,-9 5,0 9,4 9,9 0,5 -4,9 -9,9 z m 0,-16 c -3.9,0 -7,3.1 -7,7 0,3.9 3.1,7 7,7 3.9,0 7,-3.1 7,-7 0,-3.9 -3.1,-7 -7,-7 z"
   id="path759"
   inkscape:connector-curvature="0"
   style="fill:#ffffff" />
		</g>
		<g
   id="g761">
			<path
   d="m 24,445 c -0.3,0 -0.5,-0.1 -0.7,-0.3 l -6,-6 c -0.4,-0.4 -0.4,-1 0,-1.4 0.4,-0.4 1,-0.4 1.4,0 l 6,6 c 0.4,0.4 0.4,1 0,1.4 -0.2,0.2 -0.4,0.3 -0.7,0.3 z"
   id="path763"
   inkscape:connector-curvature="0"
   style="fill:#ffffff" />
		</g>
		<g
   id="g765">
			<path
   d="m 16,433 c -0.6,0 -1,-0.4 -1,-1 0,-1.7 -1.3,-3 -3,-3 -0.6,0 -1,-0.4 -1,-1 0,-0.6 0.4,-1 1,-1 2.8,0 5,2.2 5,5 0,0.6 -0.4,1 -1,1 z"
   id="path767"
   inkscape:connector-curvature="0"
   style="fill:#ffffff" />
		</g>
	</g>
	<g
   id="search_5_"
   display="inline"
   style="display:inline">
		<g
   id="g770">
			<path
   d="m 40,441 c -5,0 -9,-4 -9,-9 0,-5 4,-9 9,-9 5,0 9,4 9,9 0,5 -4,9 -9,9 z m 0,-16 c -3.9,0 -7,3.1 -7,7 0,3.9 3.1,7 7,7 3.9,0 7,-3.1 7,-7 0,-3.9 -3.1,-7 -7,-7 z"
   id="path772"
   inkscape:connector-curvature="0"
   style="fill:#00a2ff" />
		</g>
		<g
   id="g774">
			<path
   d="m 52,445 c -0.3,0 -0.5,-0.1 -0.7,-0.3 l -6,-6 c -0.4,-0.4 -0.4,-1 0,-1.4 0.4,-0.4 1,-0.4 1.4,0 l 6,6 c 0.4,0.4 0.4,1 0,1.4 -0.2,0.2 -0.4,0.3 -0.7,0.3 z"
   id="path776"
   inkscape:connector-curvature="0"
   style="fill:#00a2ff" />
		</g>
		<g
   id="g778">
			<path
   d="m 44,433 c -0.6,0 -1,-0.4 -1,-1 0,-1.7 -1.3,-3 -3,-3 -0.6,0 -1,-0.4 -1,-1 0,-0.6 0.4,-1 1,-1 2.8,0 5,2.2 5,5 0,0.6 -0.4,1 -1,1 z"
   id="path780"
   inkscape:connector-curvature="0"
   style="fill:#00a2ff" />
		</g>
	</g>
</g>
<g
   id="g5534"><g
     transform="translate(-0.05660876,-196)"
     id="g231"
     style="fill:#ffffff">
			<path
   style="fill:#ffffff"
   inkscape:connector-curvature="0"
   id="path233"
   d="m 14,221 c -0.3,0 -0.5,-0.1 -0.7,-0.3 L 9.6,217 H 3 c -0.6,0 -1,-0.4 -1,-1 v -16 c 0,-0.6 0.4,-1 1,-1 h 22 c 0.6,0 1,0.4 1,1 v 16 c 0,0.6 -0.4,1 -1,1 h -6.6 l -3.7,3.7 C 14.5,220.9 14.3,221 14,221 Z M 4,215 h 6 c 0.3,0 0.5,0.1 0.7,0.3 l 3.3,3.3 3.3,-3.3 c 0.2,-0.2 0.4,-0.3 0.7,-0.3 h 6 V 201 H 4 Z" />
		</g><g
     transform="translate(-0.05660876,-196)"
     id="g235"
     style="fill:#ffffff">
			<path
   style="fill:#ffffff"
   inkscape:connector-curvature="0"
   id="path237"
   d="M 20,207 H 8 c -0.6,0 -1,-0.4 -1,-1 0,-0.6 0.4,-1 1,-1 h 12 c 0.6,0 1,0.4 1,1 0,0.6 -0.4,1 -1,1 z" />
		</g><g
     transform="translate(-0.05660876,-196)"
     id="g239"
     style="fill:#ffffff">
			<path
   style="fill:#ffffff"
   inkscape:connector-curvature="0"
   id="path241"
   d="M 20,211 H 8 c -0.6,0 -1,-0.4 -1,-1 0,-0.6 0.4,-1 1,-1 h 12 c 0.6,0 1,0.4 1,1 0,0.6 -0.4,1 -1,1 z" />
		</g><g
     style="fill:#ffffff"
     id="g5530"
     transform="translate(-0.05660876,-196)">
			<path
   d="m 14,221 c -0.3,0 -0.5,-0.1 -0.7,-0.3 L 9.6,217 H 3 c -0.6,0 -1,-0.4 -1,-1 v -16 c 0,-0.6 0.4,-1 1,-1 h 22 c 0.6,0 1,0.4 1,1 v 16 c 0,0.6 -0.4,1 -1,1 h -6.6 l -3.7,3.7 C 14.5,220.9 14.3,221 14,221 Z M 4,215 h 6 c 0.3,0 0.5,0.1 0.7,0.3 l 3.3,3.3 3.3,-3.3 c 0.2,-0.2 0.4,-0.3 0.7,-0.3 h 6 V 201 H 4 Z"
   id="path5532"
   inkscape:connector-curvature="0"
   style="fill:#ffffff" />
		</g></g><g
   id="g5572"><g
     style="fill:#ffffff"
     id="g5546"
     transform="translate(28,-196)">
			<path
   d="m 14,221 c -0.3,0 -0.5,-0.1 -0.7,-0.3 L 9.6,217 H 3 c -0.6,0 -1,-0.4 -1,-1 v -16 c 0,-0.6 0.4,-1 1,-1 h 22 c 0.6,0 1,0.4 1,1 v 16 c 0,0.6 -0.4,1 -1,1 h -6.6 l -3.7,3.7 C 14.5,220.9 14.3,221 14,221 Z M 4,215 h 6 c 0.3,0 0.5,0.1 0.7,0.3 l 3.3,3.3 3.3,-3.3 c 0.2,-0.2 0.4,-0.3 0.7,-0.3 h 6 V 201 H 4 Z"
   id="path5548"
   inkscape:connector-curvature="0"
   style="fill:#ffffff" />
		</g><g
     transform="translate(28,-196)"
     id="g5558"
     style="fill:#ffffff">
			<path
   style="fill:#ffffff"
   inkscape:connector-curvature="0"
   id="path5560"
   d="m 14,221 c -0.3,0 -0.5,-0.1 -0.7,-0.3 L 9.6,217 H 3 c -0.6,0 -1,-0.4 -1,-1 v -16 c 0,-0.6 0.4,-1 1,-1 h 22 c 0.6,0 1,0.4 1,1 v 16 c 0,0.6 -0.4,1 -1,1 h -6.6 l -3.7,3.7 C 14.5,220.9 14.3,221 14,221 Z M 4,215 h 6 c 0.3,0 0.5,0.1 0.7,0.3 l 3.3,3.3 3.3,-3.3 c 0.2,-0.2 0.4,-0.3 0.7,-0.3 h 6 V 201 H 4 Z" />
		</g><path
     inkscape:connector-curvature="0"
     id="path5562"
     d="m 40.312152,20.86112 c -0.922417,-0.925944 -1.779065,-1.737631 -1.903664,-1.803749 -0.184738,-0.09803 -0.792363,-0.120213 -3.29284,-0.120213 H 32.04935 V 11.973953 5.0107494 h 9.941442 9.941442 v 6.9632036 6.963205 H 48.91751 c -1.895451,0 -3.102406,0.03264 -3.250893,0.08791 -0.129894,0.04835 -1.010434,0.860037 -1.956757,1.803749 l -1.720587,1.715838 z m 7.79693,-5.837224 c 0.278648,-0.03819 0.467401,-0.126569 0.640915,-0.300083 0.211353,-0.211353 0.245946,-0.309751 0.245946,-0.699586 0,-0.382669 -0.03829,-0.496503 -0.244777,-0.727619 l -0.244777,-0.273979 -6.384031,-0.02252 c -7.018999,-0.02476 -6.737841,-0.04406 -7.009456,0.481189 -0.06999,0.135352 -0.127261,0.398384 -0.127261,0.584514 0,0.421172 0.330708,0.826237 0.756253,0.92629 0.345618,0.08126 11.791604,0.110685 12.367188,0.03179 v 0 z m 0.233066,-4.060084 c 0.429409,-0.11926 0.653795,-0.457805 0.653795,-0.9864201 0,-0.3437055 -0.04247,-0.4640865 -0.237328,-0.6726805 -0.134316,-0.143786 -0.361903,-0.2767066 -0.524338,-0.3062356 -0.157855,-0.028697 -3.061804,-0.041057 -6.45322,-0.027468 -5.728987,0.022956 -6.181653,0.035201 -6.383989,0.1726987 -0.269413,0.183079 -0.411427,0.4822941 -0.411427,0.8668515 0,0.507807 0.234881,0.814489 0.755046,0.985856 0.259572,0.08552 12.288219,0.0544 12.601461,-0.0326 v 0 z"
     style="fill:#ffffff;fill-opacity:1;stroke:#ffffff;stroke-width:0.16778804;stroke-linecap:butt;stroke-linejoin:round;stroke-miterlimit:4;stroke-dasharray:none;stroke-opacity:1" /></g><path
   style="fill:#ffffff;fill-opacity:1;stroke:none"
   d="m 38.9375,30 c -3.3,0 -6,2.7 -6,6 0,3.3 2.7,6 6,6 3.3,0 6,-2.7 6,-6 0,-3.3 -2.7,-6 -6,-6 z"
   id="path5597"
   inkscape:connector-curvature="0" /><path
   style="fill:#ffffff;fill-opacity:1;stroke:none"
   d="m 39.03125,43 c -1.6,0 -5.4875,0.1125 -6.6875,1.3125 -1.2,1.1 -2.1125,5.3 -2.3125,6.5 -0.1,0.4 0.10625,0.8 0.40625,1 0.1,0.1 3.3,2.1875 8.5,2.1875 5.2,0 8.41875,-2.0875 8.71875,-2.1875 0.3,-0.2 0.475,-0.6 0.375,-1 -0.3,-1.2 -1.18125,-5.4 -2.28125,-6.5 C 44.55,43.1125 40.63125,43 39.03125,43 Z"
   id="path5599"
   inkscape:connector-curvature="0" /><g
   id="g5710"
   style="fill:#ffffff;stroke:none"
   transform="translate(27.943391,-588)">
			
		</g><g
   id="g5714"
   style="fill:#ffffff"
   transform="translate(27.943391,-588)">
			
		</g><g
   id="g5718"
   style="fill:#ffffff;stroke:none"
   transform="translate(27.943391,-588)">
			
		</g><g
   id="g5722"
   style="fill:#ffffff"
   transform="translate(27.943391,-588)">
			
		</g><path
   style="fill:#ffffff"
   d="m 46.15625,31.09375 c -0.6,-0.1 -1.11875,0.3125 -1.21875,0.8125 1.358445,1.78096 1.086608,3.10294 1.160311,4.65181 0.06197,1.70983 0.0963,3.47549 -0.09781,4.81694 -0.02648,0.0701 -0.04812,0.14688 -0.0625,0.21875 0,0.13824 0.03894,0.27647 0.09375,0.40625 0.01166,0.0276 0.01745,0.067 0.03125,0.0937 0.03324,0.0808 0.09944,0.12631 0.15625,0.1875 0.878363,0.91648 1.512842,2.07478 1.743988,3.19416 0.739384,2.19248 1.794518,4.2627 1.339959,6.01609 -0.334835,0.1 -0.565197,0.321 -0.365197,0.821 0.2,0.4 0.6,0.6875 1,0.6875 0.1,0 0.371094,-0.03911 0.371094,-0.03911 2.2,-0.7 3.341406,-2.173437 3.441406,-2.273437 0.2,-0.2 0.2875,-0.48125 0.1875,-0.78125 -0.3,-1.2 -1.18125,-5.4 -2.28125,-6.5 -0.198943,-0.19894 -1.430107,-1.23605 -2.71875,-1.96875 1.250887,-1.12042 2,-2.69151 2,-4.4375 0,-2.9 -1.98125,-5.30625 -4.781251,-5.90625 z"
   id="path4048"
   inkscape:connector-curvature="0"
   sodipodi:nodetypes="cccccccccccscscscscc" /></svg>