<?xml version="1.0" encoding="UTF-8" standalone="no"?>
<!-- Created with Inkscape (http://www.inkscape.org/) -->

<svg
   xmlns:osb="http://www.openswatchbook.org/uri/2009/osb"
   xmlns:dc="http://purl.org/dc/elements/1.1/"
   xmlns:cc="http://creativecommons.org/ns#"
   xmlns:rdf="http://www.w3.org/1999/02/22-rdf-syntax-ns#"
   xmlns:svg="http://www.w3.org/2000/svg"
   xmlns="http://www.w3.org/2000/svg"
   xmlns:sodipodi="http://sodipodi.sourceforge.net/DTD/sodipodi-0.dtd"
   xmlns:inkscape="http://www.inkscape.org/namespaces/inkscape"
   width="56"
   height="84"
   id="svg2"
   version="1.1"
   inkscape:version="0.92.3 (2405546, 2018-03-11)"
   sodipodi:docname="previewerIcons.svg">
  <defs
     id="defs4">
    <linearGradient
       id="linearGradient4900"
       osb:paint="solid">
      <stop
         style="stop-color:#ffffff;stop-opacity:1;"
         offset="0"
         id="stop4902" />
    </linearGradient>
    <linearGradient
       id="linearGradient3899"
       osb:paint="solid">
      <stop
         style="stop-color:#74a6fd;stop-opacity:1;"
         offset="0"
         id="stop3901" />
    </linearGradient>
    <linearGradient
       osb:paint="solid"
       id="linearGradient3899-5">
      <stop
         id="stop3901-5"
         offset="0"
         style="stop-color:#74a6fd;stop-opacity:1;" />
    </linearGradient>
  </defs>
  <sodipodi:namedview
     id="base"
     pagecolor="#ffffff"
     bordercolor="#666666"
     borderopacity="1.0"
     inkscape:pageopacity="0.0"
     inkscape:pageshadow="2"
     inkscape:zoom="3.9999998"
     inkscape:cx="-39.815937"
     inkscape:cy="49.389821"
     inkscape:document-units="px"
     inkscape:current-layer="layer1"
     showgrid="true"
     inkscape:showpageshadow="false"
     inkscape:snap-nodes="false"
     inkscape:window-width="2560"
     inkscape:window-height="1377"
     inkscape:window-x="1912"
     inkscape:window-y="-8"
     inkscape:window-maximized="1"
     inkscape:snap-bbox="true"
     inkscape:snap-bbox-midpoints="true"
     inkscape:snap-bbox-edge-midpoints="false"
     inkscape:bbox-nodes="false"
     inkscape:snap-object-midpoints="false"
     inkscape:snap-global="true"
     showguides="true">
    <inkscape:grid
       type="xygrid"
       id="grid2985"
       empspacing="14"
       visible="true"
       enabled="true"
       snapvisiblegridlinesonly="true"
       spacingx="1"
       color="#0000ff"
       opacity="0.07843137"
       originx="0"
       originy="0"
       spacingy="1" />
  </sodipodi:namedview>
  <metadata
     id="metadata7">
    <rdf:RDF>
      <cc:Work
         rdf:about="">
        <dc:format>image/svg+xml</dc:format>
        <dc:type
           rdf:resource="http://purl.org/dc/dcmitype/StillImage" />
        <dc:title></dc:title>
      </cc:Work>
    </rdf:RDF>
  </metadata>
  <g
     inkscape:label="Layer 1"
     inkscape:groupmode="layer"
     id="layer1"
     transform="translate(0,-968.3622)">
    <g
       id="g4573">
      <path
         sodipodi:nodetypes="ccccccc"
         inkscape:connector-curvature="0"
         id="path4560"
         d="m 42.075866,1032.409 c 3.605228,-0.038 7.242949,1.8216 10.978391,5.9711 0.253268,0.4029 0.233007,0.5067 0,0.8846 -3.75516,3.2597 -7.454549,4.9853 -11.080674,5.0494 -3.638241,0.065 -7.30935,-1.523 -11.148863,-5.0494 -0.112011,-0.3062 -0.07389,-0.5926 0.03409,-0.8846 3.900958,-3.9642 7.632081,-5.9331 11.217052,-5.9711 z"
         style="color:#000000;font-style:normal;font-variant:normal;font-weight:normal;font-stretch:normal;font-size:medium;line-height:normal;font-family:Sans;-inkscape-font-specification:Sans;text-indent:0;text-align:start;text-decoration:none;text-decoration-line:none;letter-spacing:normal;word-spacing:normal;text-transform:none;writing-mode:lr-tb;direction:ltr;baseline-shift:baseline;text-anchor:start;display:inline;overflow:visible;visibility:visible;fill:none;fill-opacity:1;stroke:#757575;stroke-width:2;stroke-miterlimit:4;stroke-dasharray:none;stroke-opacity:1;marker:none;enable-background:accumulate" />
      <path
         sodipodi:nodetypes="sssss"
         inkscape:connector-curvature="0"
         id="path4562"
         d="m 41.94468,1033.2086 c 2.825673,0 5.075525,2.2498 5.075525,5.0756 0,2.8256 -2.249852,5.0755 -5.075525,5.0755 -2.825673,0 -5.075525,-2.2499 -5.075525,-5.0755 0,-2.8258 2.249852,-5.0756 5.075525,-5.0756 z"
         style="color:#000000;font-style:normal;font-variant:normal;font-weight:normal;font-stretch:normal;font-size:medium;line-height:normal;font-family:Sans;-inkscape-font-specification:Sans;text-indent:0;text-align:start;text-decoration:none;text-decoration-line:none;letter-spacing:normal;word-spacing:normal;text-transform:none;writing-mode:lr-tb;direction:ltr;baseline-shift:baseline;text-anchor:start;display:inline;overflow:visible;visibility:visible;fill:none;fill-opacity:1;stroke:#757575;stroke-width:2;stroke-miterlimit:4;stroke-dasharray:none;stroke-opacity:1;marker:none;enable-background:accumulate" />
      <path
         id="path4564"
         d="m 43.497764,1038.2841 c 0,0.8577 -0.695339,1.553 -1.553083,1.553 -0.857745,0 -1.553084,-0.6953 -1.553084,-1.553 0,-0.8578 0.695339,-1.5531 1.553084,-1.5531 0.857744,0 1.553083,0.6953 1.553083,1.5531 z"
         style="fill:#757575;fill-opacity:1;fill-rule:nonzero;stroke:none;stroke-width:0.30937609;stroke-miterlimit:4;stroke-dasharray:none"
         inkscape:connector-curvature="0" />
    </g>
    <rect
       y="991.36218"
       x="2.987812"
       height="2.0000174"
       width="22.024376"
       id="rect4997"
       style="fill:#b8b8b8;fill-opacity:1;stroke:none" />
    <path
       style="fill:none;stroke:#b8b8b8;stroke-width:2;stroke-miterlimit:4;stroke-opacity:1;stroke-dasharray:none"
       d="m 6.012188,972.3622 16,0 -1,20 -14,0 z"
       id="rect3015"
       inkscape:connector-curvature="0"
       sodipodi:nodetypes="ccccc" />
    <path
       style="fill:none;stroke:#b8b8b8;stroke-width:2;stroke-linecap:butt;stroke-linejoin:miter;stroke-miterlimit:4;stroke-opacity:1;stroke-dasharray:none"
       d="m 7.012188,988.3622 14,0"
       id="path3795"
       inkscape:connector-curvature="0"
       sodipodi:nodetypes="cc" />
    <path
       style="fill:none;stroke:#b8b8b8;stroke-width:2;stroke-miterlimit:4;stroke-opacity:1;stroke-dasharray:none"
       d="m 5.5,1007.3622 17,0 0,3 -5,2 2,9 -3.5,0 -2,-4 -2,4 -3.5,0 2,-9 -5,-2 z"
       id="rect3826"
       inkscape:connector-curvature="0"
       sodipodi:nodetypes="cccccccccccc" />
    <path
       sodipodi:type="arc"
       style="fill:none;stroke:#b8b8b8;stroke-width:2.39572072;stroke-miterlimit:4;stroke-opacity:1;stroke-dasharray:none"
       id="path3831"
       sodipodi:cx="40"
       sodipodi:cy="1"
       sodipodi:rx="4"
       sodipodi:ry="4"
       d="m 44,1 a 4,4 0 0 1 -4,4 4,4 0 0 1 -4,-4 4,4 0 0 1 4,-4 4,4 0 0 1 4,4 z"
       transform="matrix(0.83482181,0,0,0.83482181,-19.392872,1002.6771)" />
    <path
       sodipodi:nodetypes="ccccccc"
       inkscape:connector-curvature="0"
       id="path4543"
       d="m 14.131185,1032.4871 c 3.605228,-0.038 7.242949,1.8216 10.978391,5.9711 0.253268,0.4029 0.233007,0.5067 0,0.8846 -3.75516,3.2597 -7.454549,4.9853 -11.080674,5.0494 -3.638241,0.065 -7.3093498,-1.523 -11.1488628,-5.0494 -0.1120116,-0.3062 -0.073885,-0.5926 0.034094,-0.8846 3.9009574,-3.9642 7.6320808,-5.9331 11.2170518,-5.9711 z"
       style="color:#000000;font-style:normal;font-variant:normal;font-weight:normal;font-stretch:normal;font-size:medium;line-height:normal;font-family:Sans;-inkscape-font-specification:Sans;text-indent:0;text-align:start;text-decoration:none;text-decoration-line:none;letter-spacing:normal;word-spacing:normal;text-transform:none;writing-mode:lr-tb;direction:ltr;baseline-shift:baseline;text-anchor:start;display:inline;overflow:visible;visibility:visible;fill:none;fill-opacity:1;stroke:#666666;stroke-width:2;stroke-miterlimit:4;stroke-dasharray:none;stroke-opacity:1;marker:none;enable-background:accumulate" />
    <path
       sodipodi:nodetypes="sssss"
       inkscape:connector-curvature="0"
       id="path4545"
       d="m 13.999999,1033.2867 c 2.825673,0 5.075525,2.2498 5.075525,5.0756 0,2.8256 -2.249852,5.0755 -5.075525,5.0755 -2.825673,0 -5.0755256,-2.2499 -5.0755256,-5.0755 0,-2.8258 2.2498526,-5.0756 5.0755256,-5.0756 z"
       style="color:#000000;font-style:normal;font-variant:normal;font-weight:normal;font-stretch:normal;font-size:medium;line-height:normal;font-family:Sans;-inkscape-font-specification:Sans;text-indent:0;text-align:start;text-decoration:none;text-decoration-line:none;letter-spacing:normal;word-spacing:normal;text-transform:none;writing-mode:lr-tb;direction:ltr;baseline-shift:baseline;text-anchor:start;display:inline;overflow:visible;visibility:visible;fill:none;fill-opacity:1;stroke:#666666;stroke-width:2;stroke-miterlimit:4;stroke-dasharray:none;stroke-opacity:1;marker:none;enable-background:accumulate" />
    <path
       id="path4547"
       d="m 15.553083,1038.3622 c 0,0.8577 -0.695339,1.553 -1.553083,1.553 -0.857745,0 -1.553084,-0.6953 -1.553084,-1.553 0,-0.8578 0.695339,-1.5531 1.553084,-1.5531 0.857744,0 1.553083,0.6953 1.553083,1.5531 z"
       style="fill:#666666;fill-opacity:1;fill-rule:nonzero;stroke:none;stroke-width:0.30937609;stroke-miterlimit:4;stroke-dasharray:none"
       inkscape:connector-curvature="0" />
    <rect
       style="fill:#757575;fill-opacity:1;stroke:none"
       id="rect3770"
       width="20.274376"
       height="1.8411012"
       x="31.863001"
       y="991.44165" />
    <path
       sodipodi:nodetypes="ccccc"
       inkscape:connector-curvature="0"
       id="path3772"
       d="m 34.012376,972.3622 16,0 -1,20 -14,0 z"
       style="fill:#757575;stroke:none;stroke-width:0;stroke-miterlimit:4;stroke-opacity:1;stroke-dasharray:none;fill-opacity:1" />
    <path
       sodipodi:nodetypes="cc"
       inkscape:connector-curvature="0"
       id="path3774"
       d="m 35.012376,988.3622 14,0"
       style="fill:none;stroke:#757575;stroke-width:2;stroke-linecap:butt;stroke-linejoin:miter;stroke-miterlimit:4;stroke-opacity:1;stroke-dasharray:none" />
    <path
       sodipodi:nodetypes="cccccccccccc"
       inkscape:connector-curvature="0"
       id="path3776"
       d="m 33.500188,1007.3622 17,0 0,3 -5,2 2,9 -3.5,0 -2,-4 -2,4 -3.5,0 2,-9 -5,-2 z"
       style="fill:#757575;stroke:none;stroke-width:0;stroke-miterlimit:4;stroke-opacity:1;stroke-dasharray:none;fill-opacity:1" />
    <path
       transform="matrix(0.83482181,0,0,0.83482181,8.607316,1002.6771)"
       d="m 44,1 a 4,4 0 0 1 -4,4 4,4 0 0 1 -4,-4 4,4 0 0 1 4,-4 4,4 0 0 1 4,4 z"
       sodipodi:ry="4"
       sodipodi:rx="4"
       sodipodi:cy="1"
       sodipodi:cx="40"
       id="path3778"
       style="fill:#757575;fill-opacity:1;stroke:none;stroke-width:0;stroke-miterlimit:4;stroke-opacity:1;stroke-dasharray:none"
       sodipodi:type="arc" />
    <path
       id="path4568"
       d="m 33.514726,1028.4627 18.384776,18.3848 -1.414228,1.4142 -18.384776,-18.3848 z"
       style="fill:#757575;fill-opacity:1;fill-rule:nonzero;stroke:#000000;stroke-width:0;stroke-linejoin:round;stroke-miterlimit:4;stroke-opacity:1"
       inkscape:connector-curvature="0" />
    <path
       id="path4566"
       d="m 32.100512,1046.8475 18.384776,-18.3848 1.414221,1.4142 -18.384776,18.3848 z"
       style="fill:#757575;fill-opacity:1;fill-rule:nonzero;stroke:#000000;stroke-width:0;stroke-linejoin:round;stroke-miterlimit:4;stroke-opacity:1"
       inkscape:connector-curvature="0" />
  </g>
  <style
     id="style3772"
     type="text/css">
	.st0{fill:#191919;stroke:#191919;stroke-width:2;stroke-linecap:round;stroke-linejoin:round;stroke-miterlimit:10;}
	.st1{fill:none;stroke:#191919;stroke-width:2;stroke-linecap:round;stroke-linejoin:round;stroke-miterlimit:10;}
	.st2{fill:#191919;stroke:#191919;stroke-width:2;stroke-miterlimit:10;}
	.st3{fill:#FFFFFF;stroke:#191919;stroke-width:2;stroke-miterlimit:10;}
	.st4{fill:none;stroke:#191919;stroke-width:2;stroke-miterlimit:10;}
	.st5{fill:none;stroke:#FFFFFF;stroke-width:2;stroke-linecap:round;stroke-linejoin:round;stroke-miterlimit:10;}
	.st6{fill:none;stroke:#00A2FF;stroke-width:2;stroke-linecap:round;stroke-linejoin:round;stroke-miterlimit:10;}
	.st7{fill:none;stroke:#00A2FF;stroke-width:4;stroke-linecap:round;stroke-linejoin:round;stroke-miterlimit:10;}
	.st8{fill:#191919;}
	.st9{fill:#B8B8B8;}
	.st10{fill:none;stroke:#B8B8B8;stroke-width:3;stroke-linecap:round;stroke-linejoin:round;stroke-miterlimit:10;}
	.st11{fill:#E2231A;}
	.st12{fill:#FFFFFF;}
	.st13{fill:none;stroke:#B8B8B8;stroke-width:4;stroke-linecap:round;stroke-linejoin:round;stroke-miterlimit:10;}
	.st14{fill:none;stroke:#FFFFFF;stroke-width:4;stroke-linecap:round;stroke-linejoin:round;stroke-miterlimit:10;}
	.st15{fill:none;stroke:#B8B8B8;stroke-width:2;stroke-linecap:round;stroke-linejoin:round;stroke-miterlimit:10;}
	.st16{fill:#D86868;}
	.st17{fill:#00B259;}
	.st18{fill:#00A2FF;}
	.st19{fill:#FD8192;}
	.st20{fill:#CCCCCC;}
	.st21{fill:#66C7FF;}
	.st22{fill:#F6B702;}
	.st23{fill:#757575;}
</style>
</svg>
