<?xml version="1.0" encoding="UTF-8" standalone="no"?>
<!-- Created with Inkscape (http://www.inkscape.org/) -->

<svg
   xmlns:osb="http://www.openswatchbook.org/uri/2009/osb"
   xmlns:dc="http://purl.org/dc/elements/1.1/"
   xmlns:cc="http://creativecommons.org/ns#"
   xmlns:rdf="http://www.w3.org/1999/02/22-rdf-syntax-ns#"
   xmlns:svg="http://www.w3.org/2000/svg"
   xmlns="http://www.w3.org/2000/svg"
   xmlns:sodipodi="http://sodipodi.sourceforge.net/DTD/sodipodi-0.dtd"
   xmlns:inkscape="http://www.inkscape.org/namespaces/inkscape"
   width="56"
   height="84"
   id="svg2"
   version="1.1"
   inkscape:version="0.48.5 r10040"
   sodipodi:docname="icons.svg">
  <defs
     id="defs4">
    <linearGradient
       id="linearGradient4900"
       osb:paint="solid">
      <stop
         style="stop-color:#ffffff;stop-opacity:1;"
         offset="0"
         id="stop4902" />
    </linearGradient>
    <linearGradient
       id="linearGradient3899"
       osb:paint="solid">
      <stop
         style="stop-color:#74a6fd;stop-opacity:1;"
         offset="0"
         id="stop3901" />
    </linearGradient>
    <linearGradient
       osb:paint="solid"
       id="linearGradient3899-5">
      <stop
         id="stop3901-5"
         offset="0"
         style="stop-color:#74a6fd;stop-opacity:1;" />
    </linearGradient>
  </defs>
  <sodipodi:namedview
     id="base"
     pagecolor="#ffffff"
     bordercolor="#666666"
     borderopacity="1.0"
     inkscape:pageopacity="0.0"
     inkscape:pageshadow="2"
     inkscape:zoom="5.656854"
     inkscape:cx="30.311652"
     inkscape:cy="26.898329"
     inkscape:document-units="px"
     inkscape:current-layer="layer1"
     showgrid="true"
     inkscape:showpageshadow="false"
     inkscape:snap-nodes="false"
     inkscape:window-width="1920"
     inkscape:window-height="1147"
     inkscape:window-x="1912"
     inkscape:window-y="-8"
     inkscape:window-maximized="1"
     inkscape:snap-bbox="true"
     inkscape:snap-bbox-midpoints="true"
     inkscape:snap-bbox-edge-midpoints="false"
     inkscape:bbox-nodes="false"
     inkscape:snap-object-midpoints="false"
     inkscape:snap-global="true"
     showguides="true">
    <inkscape:grid
       type="xygrid"
       id="grid2985"
       empspacing="14"
       visible="true"
       enabled="true"
       snapvisiblegridlinesonly="true"
       spacingx="1px"
       color="#0000ff"
       opacity="0.07843137" />
  </sodipodi:namedview>
  <metadata
     id="metadata7">
    <rdf:RDF>
      <cc:Work
         rdf:about="">
        <dc:format>image/svg+xml</dc:format>
        <dc:type
           rdf:resource="http://purl.org/dc/dcmitype/StillImage" />
        <dc:title />
      </cc:Work>
    </rdf:RDF>
  </metadata>
  <g
     inkscape:label="Layer 1"
     inkscape:groupmode="layer"
     id="layer1"
     transform="translate(0,-968.3622)">
    <rect
       y="991.36218"
       x="2.987812"
       height="2.0000174"
       width="22.024376"
       id="rect4997"
       style="fill:#b8b8b8;fill-opacity:1;stroke:none" />
    <path
       style="fill:none;stroke:#b8b8b8;stroke-width:2;stroke-miterlimit:4;stroke-opacity:1;stroke-dasharray:none"
       d="m 6.012188,972.3622 16,0 -1,20 -14,0 z"
       id="rect3015"
       inkscape:connector-curvature="0"
       sodipodi:nodetypes="ccccc" />
    <path
       style="fill:none;stroke:#b8b8b8;stroke-width:2;stroke-linecap:butt;stroke-linejoin:miter;stroke-miterlimit:4;stroke-opacity:1;stroke-dasharray:none"
       d="m 7.012188,988.3622 14,0"
       id="path3795"
       inkscape:connector-curvature="0"
       sodipodi:nodetypes="cc" />
    <path
       style="fill:none;stroke:#b8b8b8;stroke-width:2;stroke-miterlimit:4;stroke-opacity:1;stroke-dasharray:none"
       d="m 5.5,1007.3622 17,0 0,3 -5,2 2,9 -3.5,0 -2,-4 -2,4 -3.5,0 2,-9 -5,-2 z"
       id="rect3826"
       inkscape:connector-curvature="0"
       sodipodi:nodetypes="cccccccccccc" />
    <path
       sodipodi:type="arc"
       style="fill:none;stroke:#b8b8b8;stroke-width:2.39572072;stroke-miterlimit:4;stroke-opacity:1;stroke-dasharray:none"
       id="path3831"
       sodipodi:cx="40"
       sodipodi:cy="1"
       sodipodi:rx="4"
       sodipodi:ry="4"
       d="m 44,1 c 0,2.209139 -1.790861,4 -4,4 -2.209139,0 -4,-1.790861 -4,-4 0,-2.209139 1.790861,-4 4,-4 2.209139,0 4,1.790861 4,4 z"
       transform="matrix(0.83482181,0,0,0.83482181,-19.392872,1002.6771)" />
    <g
       id="g3830"
       transform="translate(27.961959,0.40871023)">
      <path
         inkscape:connector-curvature="0"
         id="rect3847"
         d="m 14.125,1030.9062 c -3.998704,0.039 -7.9510124,2.0371 -11.8125,5.7188 l -0.1875,0.1875 -0.09375,0.25 c -0.1469102,0.4655 -0.5115579,1.5669 0.09375,2.75 l 0.0625,0.1875 0.15625,0.125 c 3.8425413,3.3168 7.803917,4.9396 11.75,4.875 3.946083,-0.065 7.787097,-1.8166 11.53125,-4.875 l 0.125,-0.094 0.0625,-0.094 c 0.634615,-0.9231 0.63462,-2.2331 0,-3.1563 l -0.03125,-0.062 -0.0625,-0.063 c -3.704569,-3.8447 -7.595046,-5.789 -11.59375,-5.75 z m 0,2 c 3.304456,-0.032 6.638694,1.5445 10.0625,5.0626 0.232139,0.3416 0.213568,0.4296 0,0.75 -3.441879,2.7638 -6.83264,4.2268 -10.15625,4.2812 -3.334714,0.055 -6.6995549,-1.2913 -10.21875,-4.2812 -0.1026669,-0.2596 -0.067721,-0.5024 0.03125,-0.75 3.5755135,-3.361 6.995361,-5.0304 10.28125,-5.0626 z"
         style="font-size:medium;font-style:normal;font-variant:normal;font-weight:normal;font-stretch:normal;text-indent:0;text-align:start;text-decoration:none;line-height:normal;letter-spacing:normal;word-spacing:normal;text-transform:none;direction:ltr;block-progression:tb;writing-mode:lr-tb;text-anchor:start;baseline-shift:baseline;color:#000000;fill:#333333;fill-opacity:1;stroke:none;stroke-width:2;marker:none;visibility:visible;display:inline;overflow:visible;enable-background:accumulate;font-family:Sans;-inkscape-font-specification:Sans" />
      <path
         inkscape:connector-curvature="0"
         id="path3850"
         d="m 14,1031.8092 c -3.332433,0 -6.0664197,2.7339 -6.0664197,6.0664 0,3.3324 2.7339867,6.0664 6.0664197,6.0664 3.332432,0 6.066419,-2.734 6.066419,-6.0664 0,-3.3325 -2.733987,-6.0664 -6.066419,-6.0664 z m 0,2.0221 c 2.251552,0 4.044279,1.7927 4.044279,4.0443 0,2.2515 -1.792727,4.0443 -4.044279,4.0443 -2.251553,0 -4.0442799,-1.7928 -4.0442799,-4.0443 0,-2.2516 1.7927269,-4.0443 4.0442799,-4.0443 z"
         style="font-size:medium;font-style:normal;font-variant:normal;font-weight:normal;font-stretch:normal;text-indent:0;text-align:start;text-decoration:none;line-height:normal;letter-spacing:normal;word-spacing:normal;text-transform:none;direction:ltr;block-progression:tb;writing-mode:lr-tb;text-anchor:start;baseline-shift:baseline;color:#000000;fill:#333333;fill-opacity:1;stroke:none;stroke-width:1.97810256;marker:none;visibility:visible;display:inline;overflow:visible;enable-background:accumulate;font-family:Sans;-inkscape-font-specification:Sans" />
      <path
         id="path3852"
         d="m 18,41 c 0,2.761424 -2.238576,5 -5,5 -2.761424,0 -5,-2.238576 -5,-5 0,-2.761424 2.238576,-5 5,-5 2.761424,0 5,2.238576 5,5 z"
         style="fill:#333333;fill-opacity:1;fill-rule:nonzero;stroke:none"
         transform="matrix(0.31061668,0,0,0.31061668,9.961983,1025.1402)"
         inkscape:connector-curvature="0" />
    </g>
    <rect
       style="fill:#757575;fill-opacity:1;stroke:none"
       id="rect3770"
       width="20.274376"
       height="1.8411012"
       x="31.863001"
       y="991.44165" />
    <path
       sodipodi:nodetypes="ccccc"
       inkscape:connector-curvature="0"
       id="path3772"
       d="m 34.012376,972.3622 16,0 -1,20 -14,0 z"
       style="fill:#757575;stroke:none;stroke-width:0;stroke-miterlimit:4;stroke-opacity:1;stroke-dasharray:none;fill-opacity:1" />
    <path
       sodipodi:nodetypes="cc"
       inkscape:connector-curvature="0"
       id="path3774"
       d="m 35.012376,988.3622 14,0"
       style="fill:none;stroke:#757575;stroke-width:2;stroke-linecap:butt;stroke-linejoin:miter;stroke-miterlimit:4;stroke-opacity:1;stroke-dasharray:none" />
    <path
       sodipodi:nodetypes="cccccccccccc"
       inkscape:connector-curvature="0"
       id="path3776"
       d="m 33.500188,1007.3622 17,0 0,3 -5,2 2,9 -3.5,0 -2,-4 -2,4 -3.5,0 2,-9 -5,-2 z"
       style="fill:#757575;stroke:none;stroke-width:0;stroke-miterlimit:4;stroke-opacity:1;stroke-dasharray:none;fill-opacity:1" />
    <path
       transform="matrix(0.83482181,0,0,0.83482181,8.607316,1002.6771)"
       d="m 44,1 c 0,2.209139 -1.790861,4 -4,4 -2.209139,0 -4,-1.790861 -4,-4 0,-2.209139 1.790861,-4 4,-4 2.209139,0 4,1.790861 4,4 z"
       sodipodi:ry="4"
       sodipodi:rx="4"
       sodipodi:cy="1"
       sodipodi:cx="40"
       id="path3778"
       style="fill:#757575;fill-opacity:1;stroke:none;stroke-width:0;stroke-miterlimit:4;stroke-opacity:1;stroke-dasharray:none"
       sodipodi:type="arc" />
    <g
       id="g3823"
       transform="translate(-27.996941,1.2982266e-5)">
      <path
         inkscape:connector-curvature="0"
         id="path3779"
         d="m 42.0625,1031.3125 c -3.998704,0.039 -7.951012,2.0683 -11.8125,5.75 L 30.0625,1037.25 30,1037.4688 c -0.14691,0.4654 -0.542808,1.5981 0.0625,2.7812 l 0.09375,0.1562 0.15625,0.125 c 3.842541,3.3169 7.772667,4.9396 11.71875,4.875 3.946083,-0.064 7.818347,-1.7853 11.5625,-4.8437 l 0.09375,-0.094 0.09375,-0.125 c 0.634615,-0.9232 0.63462,-2.2019 0,-3.125 l -0.0625,-0.063 -0.03125,-0.062 c -3.704569,-3.8448 -7.626296,-5.8204 -11.625,-5.7813 z m 0.03125,2 c 3.304273,-0.032 6.607646,1.5449 10.03125,5.0625 0.224487,0.3302 0.189951,0.458 0,0.75 -3.441583,2.7634 -6.801663,4.2269 -10.125,4.2812 -3.317219,0.054 -6.688244,-1.2619 -10.1875,-4.2187 -0.129052,-0.3026 -0.113318,-0.5276 0,-0.8125 3.57512,-3.3603 6.995693,-5.0304 10.28125,-5.0625 z"
         style="font-size:medium;font-style:normal;font-variant:normal;font-weight:normal;font-stretch:normal;text-indent:0;text-align:start;text-decoration:none;line-height:normal;letter-spacing:normal;word-spacing:normal;text-transform:none;direction:ltr;block-progression:tb;writing-mode:lr-tb;text-anchor:start;baseline-shift:baseline;color:#000000;fill:#333333;fill-opacity:1;stroke:none;stroke-width:2;marker:none;visibility:visible;display:inline;overflow:visible;enable-background:accumulate;font-family:Sans;-inkscape-font-specification:Sans" />
      <path
         inkscape:connector-curvature="0"
         id="path3781"
         d="m 41.953316,1032.2312 c -3.332433,0 -6.06642,2.734 -6.06642,6.0664 0,3.3325 2.733987,6.0665 6.06642,6.0665 3.332433,0 6.066419,-2.734 6.066419,-6.0665 0,-3.3324 -2.733986,-6.0664 -6.066419,-6.0664 z m 0,2.0222 c 2.251552,0 4.044279,1.7927 4.044279,4.0442 0,2.2516 -1.792727,4.0443 -4.044279,4.0443 -2.251553,0 -4.04428,-1.7927 -4.04428,-4.0443 0,-2.2515 1.792727,-4.0442 4.04428,-4.0442 z"
         style="font-size:medium;font-style:normal;font-variant:normal;font-weight:normal;font-stretch:normal;text-indent:0;text-align:start;text-decoration:none;line-height:normal;letter-spacing:normal;word-spacing:normal;text-transform:none;direction:ltr;block-progression:tb;writing-mode:lr-tb;text-anchor:start;baseline-shift:baseline;color:#000000;fill:#333333;fill-opacity:1;stroke:none;stroke-width:1.97810256;marker:none;visibility:visible;display:inline;overflow:visible;enable-background:accumulate;font-family:Sans;-inkscape-font-specification:Sans" />
      <path
         id="path3783"
         d="m 18,41 c 0,2.761424 -2.238576,5 -5,5 -2.761424,0 -5,-2.238576 -5,-5 0,-2.761424 2.238576,-5 5,-5 2.761424,0 5,2.238576 5,5 z"
         style="fill:#333333;fill-opacity:1;fill-rule:nonzero;stroke:none"
         transform="matrix(0.31061668,0,0,0.31061668,37.915299,1025.5623)"
         inkscape:connector-curvature="0" />
      <path
         id="rect3787"
         d="m -717.53448,762.9314 26,0 0,2.00001 -26,0 z"
         style="fill:#333333;fill-opacity:1;fill-rule:nonzero;stroke:#000000;stroke-width:0;stroke-linejoin:round;stroke-miterlimit:4;stroke-opacity:1"
         transform="matrix(0.70710678,-0.70710678,0.70710678,0.70710678,0,0)"
         inkscape:connector-curvature="0" />
      <path
         id="rect3789"
         d="m 750.9314,703.53448 26,0 0,2.00002 -26,0 z"
         style="fill:#333333;fill-opacity:1;fill-rule:nonzero;stroke:#000000;stroke-width:0;stroke-linejoin:round;stroke-miterlimit:4;stroke-opacity:1"
         transform="matrix(0.70710678,0.70710678,-0.70710678,0.70710678,0,0)"
         inkscape:connector-curvature="0" />
    </g>
  </g>
  <style
     id="style3772"
     type="text/css">
	.st0{fill:#191919;stroke:#191919;stroke-width:2;stroke-linecap:round;stroke-linejoin:round;stroke-miterlimit:10;}
	.st1{fill:none;stroke:#191919;stroke-width:2;stroke-linecap:round;stroke-linejoin:round;stroke-miterlimit:10;}
	.st2{fill:#191919;stroke:#191919;stroke-width:2;stroke-miterlimit:10;}
	.st3{fill:#FFFFFF;stroke:#191919;stroke-width:2;stroke-miterlimit:10;}
	.st4{fill:none;stroke:#191919;stroke-width:2;stroke-miterlimit:10;}
	.st5{fill:none;stroke:#FFFFFF;stroke-width:2;stroke-linecap:round;stroke-linejoin:round;stroke-miterlimit:10;}
	.st6{fill:none;stroke:#00A2FF;stroke-width:2;stroke-linecap:round;stroke-linejoin:round;stroke-miterlimit:10;}
	.st7{fill:none;stroke:#00A2FF;stroke-width:4;stroke-linecap:round;stroke-linejoin:round;stroke-miterlimit:10;}
	.st8{fill:#191919;}
	.st9{fill:#B8B8B8;}
	.st10{fill:none;stroke:#B8B8B8;stroke-width:3;stroke-linecap:round;stroke-linejoin:round;stroke-miterlimit:10;}
	.st11{fill:#E2231A;}
	.st12{fill:#FFFFFF;}
	.st13{fill:none;stroke:#B8B8B8;stroke-width:4;stroke-linecap:round;stroke-linejoin:round;stroke-miterlimit:10;}
	.st14{fill:none;stroke:#FFFFFF;stroke-width:4;stroke-linecap:round;stroke-linejoin:round;stroke-miterlimit:10;}
	.st15{fill:none;stroke:#B8B8B8;stroke-width:2;stroke-linecap:round;stroke-linejoin:round;stroke-miterlimit:10;}
	.st16{fill:#D86868;}
	.st17{fill:#00B259;}
	.st18{fill:#00A2FF;}
	.st19{fill:#FD8192;}
	.st20{fill:#CCCCCC;}
	.st21{fill:#66C7FF;}
	.st22{fill:#F6B702;}
	.st23{fill:#757575;}
</style>
</svg>
